<mxfile host="app.diagrams.net" modified="2022-02-08T11:05:41.996Z" agent="5.0 (Windows NT 10.0; Win64; x64) AppleWebKit/537.36 (KHTML, like Gecko) Chrome/97.0.4692.99 Safari/537.36" etag="HMB3gBRKUuc7KZcotme2" version="16.5.3" type="github" pages="2">
  <diagram id="HTePSRwF8Tp7--TZCH-6" name="Page-1">
    <mxGraphModel dx="2966" dy="1563" grid="1" gridSize="10" guides="1" tooltips="1" connect="1" arrows="1" fold="1" page="1" pageScale="1" pageWidth="1169" pageHeight="1654" math="0" shadow="0">
      <root>
        <mxCell id="0" />
        <mxCell id="1" parent="0" />
        <mxCell id="EF0tD5zJlTwU-LwpF9rW-11" style="edgeStyle=orthogonalEdgeStyle;rounded=0;orthogonalLoop=1;jettySize=auto;html=1;exitX=0.855;exitY=0.145;exitDx=0;exitDy=0;exitPerimeter=0;entryX=0;entryY=0.22;entryDx=0;entryDy=0;entryPerimeter=0;" edge="1" parent="1" source="EF0tD5zJlTwU-LwpF9rW-1" target="EF0tD5zJlTwU-LwpF9rW-2">
          <mxGeometry relative="1" as="geometry" />
        </mxCell>
        <mxCell id="EF0tD5zJlTwU-LwpF9rW-1" value="" style="outlineConnect=0;dashed=0;verticalLabelPosition=bottom;verticalAlign=top;align=center;html=1;shape=mxgraph.aws3.lambda_function;fillColor=#F58534;gradientColor=none;" vertex="1" parent="1">
          <mxGeometry x="800" y="435" width="69" height="72" as="geometry" />
        </mxCell>
        <mxCell id="EF0tD5zJlTwU-LwpF9rW-12" style="edgeStyle=orthogonalEdgeStyle;rounded=0;orthogonalLoop=1;jettySize=auto;html=1;" edge="1" parent="1" source="EF0tD5zJlTwU-LwpF9rW-2">
          <mxGeometry relative="1" as="geometry">
            <mxPoint x="870" y="485" as="targetPoint" />
            <Array as="points">
              <mxPoint x="950" y="485" />
              <mxPoint x="950" y="485" />
            </Array>
          </mxGeometry>
        </mxCell>
        <mxCell id="EF0tD5zJlTwU-LwpF9rW-2" value="" style="outlineConnect=0;dashed=0;verticalLabelPosition=bottom;verticalAlign=top;align=center;html=1;shape=mxgraph.aws3.dynamo_db;fillColor=#2E73B8;gradientColor=none;" vertex="1" parent="1">
          <mxGeometry x="970" y="430.5" width="60" height="69.5" as="geometry" />
        </mxCell>
        <mxCell id="yTwSWckdho64-H-ZR-6q-1" style="edgeStyle=orthogonalEdgeStyle;curved=1;rounded=0;orthogonalLoop=1;jettySize=auto;html=1;fontSize=12;" edge="1" parent="1" source="EF0tD5zJlTwU-LwpF9rW-3" target="EF0tD5zJlTwU-LwpF9rW-6">
          <mxGeometry relative="1" as="geometry" />
        </mxCell>
        <mxCell id="EF0tD5zJlTwU-LwpF9rW-3" value="" style="outlineConnect=0;dashed=0;verticalLabelPosition=bottom;verticalAlign=top;align=center;html=1;shape=mxgraph.aws3.api_gateway;fillColor=#D9A741;gradientColor=none;" vertex="1" parent="1">
          <mxGeometry x="470" y="421.5" width="76.5" height="93" as="geometry" />
        </mxCell>
        <mxCell id="yTwSWckdho64-H-ZR-6q-2" style="edgeStyle=orthogonalEdgeStyle;curved=1;rounded=0;orthogonalLoop=1;jettySize=auto;html=1;exitX=1;exitY=0.5;exitDx=0;exitDy=0;exitPerimeter=0;fontSize=12;" edge="1" parent="1" source="EF0tD5zJlTwU-LwpF9rW-5" target="EF0tD5zJlTwU-LwpF9rW-3">
          <mxGeometry relative="1" as="geometry">
            <mxPoint x="600" y="360" as="targetPoint" />
            <Array as="points">
              <mxPoint x="570" y="267" />
              <mxPoint x="570" y="350" />
              <mxPoint x="508" y="350" />
            </Array>
          </mxGeometry>
        </mxCell>
        <mxCell id="EF0tD5zJlTwU-LwpF9rW-5" value="" style="outlineConnect=0;dashed=0;verticalLabelPosition=bottom;verticalAlign=top;align=center;html=1;shape=mxgraph.aws3.cognito;fillColor=#AD688B;gradientColor=none;" vertex="1" parent="1">
          <mxGeometry x="430" y="220" width="76.5" height="93" as="geometry" />
        </mxCell>
        <mxCell id="EF0tD5zJlTwU-LwpF9rW-13" style="edgeStyle=orthogonalEdgeStyle;rounded=0;orthogonalLoop=1;jettySize=auto;html=1;exitX=1;exitY=0.522;exitDx=0;exitDy=0;exitPerimeter=0;entryX=0;entryY=0.5;entryDx=0;entryDy=0;entryPerimeter=0;" edge="1" parent="1" source="EF0tD5zJlTwU-LwpF9rW-6" target="EF0tD5zJlTwU-LwpF9rW-1">
          <mxGeometry relative="1" as="geometry">
            <mxPoint x="790" y="473" as="targetPoint" />
          </mxGeometry>
        </mxCell>
        <mxCell id="EF0tD5zJlTwU-LwpF9rW-6" value="" style="outlineConnect=0;dashed=0;verticalLabelPosition=bottom;verticalAlign=top;align=center;html=1;shape=mxgraph.aws3.sqs;fillColor=#D9A741;gradientColor=none;" vertex="1" parent="1">
          <mxGeometry x="630" y="430.5" width="70" height="75" as="geometry" />
        </mxCell>
        <mxCell id="EF0tD5zJlTwU-LwpF9rW-7" value="STUDENT" style="swimlane;fontStyle=0;childLayout=stackLayout;horizontal=1;startSize=26;fillColor=none;horizontalStack=0;resizeParent=1;resizeParentMax=0;resizeLast=0;collapsible=1;marginBottom=0;" vertex="1" parent="1">
          <mxGeometry x="110" y="331" width="170" height="182" as="geometry">
            <mxRectangle x="210" y="350" width="90" height="26" as="alternateBounds" />
          </mxGeometry>
        </mxCell>
        <mxCell id="EF0tD5zJlTwU-LwpF9rW-8" value="+ NAME: STRING" style="text;strokeColor=none;fillColor=none;align=left;verticalAlign=top;spacingLeft=4;spacingRight=4;overflow=hidden;rotatable=0;points=[[0,0.5],[1,0.5]];portConstraint=eastwest;" vertex="1" parent="EF0tD5zJlTwU-LwpF9rW-7">
          <mxGeometry y="26" width="170" height="26" as="geometry" />
        </mxCell>
        <mxCell id="EF0tD5zJlTwU-LwpF9rW-10" value="+ EMAIL :Â  STRING" style="text;strokeColor=none;fillColor=none;align=left;verticalAlign=top;spacingLeft=4;spacingRight=4;overflow=hidden;rotatable=0;points=[[0,0.5],[1,0.5]];portConstraint=eastwest;" vertex="1" parent="EF0tD5zJlTwU-LwpF9rW-7">
          <mxGeometry y="52" width="170" height="26" as="geometry" />
        </mxCell>
        <mxCell id="EF0tD5zJlTwU-LwpF9rW-9" value="+ DOB: STRING" style="text;strokeColor=none;fillColor=none;align=left;verticalAlign=top;spacingLeft=4;spacingRight=4;overflow=hidden;rotatable=0;points=[[0,0.5],[1,0.5]];portConstraint=eastwest;" vertex="1" parent="EF0tD5zJlTwU-LwpF9rW-7">
          <mxGeometry y="78" width="170" height="26" as="geometry" />
        </mxCell>
        <mxCell id="EF0tD5zJlTwU-LwpF9rW-30" value="+ NATIONALITY: STRING" style="text;strokeColor=none;fillColor=none;align=left;verticalAlign=top;spacingLeft=4;spacingRight=4;overflow=hidden;rotatable=0;points=[[0,0.5],[1,0.5]];portConstraint=eastwest;" vertex="1" parent="EF0tD5zJlTwU-LwpF9rW-7">
          <mxGeometry y="104" width="170" height="26" as="geometry" />
        </mxCell>
        <mxCell id="EF0tD5zJlTwU-LwpF9rW-31" value="+ PHONE : NUMBER&#xa;" style="text;strokeColor=none;fillColor=none;align=left;verticalAlign=top;spacingLeft=4;spacingRight=4;overflow=hidden;rotatable=0;points=[[0,0.5],[1,0.5]];portConstraint=eastwest;" vertex="1" parent="EF0tD5zJlTwU-LwpF9rW-7">
          <mxGeometry y="130" width="170" height="26" as="geometry" />
        </mxCell>
        <mxCell id="EF0tD5zJlTwU-LwpF9rW-32" value="+GENDER : STRING" style="text;strokeColor=none;fillColor=none;align=left;verticalAlign=top;spacingLeft=4;spacingRight=4;overflow=hidden;rotatable=0;points=[[0,0.5],[1,0.5]];portConstraint=eastwest;" vertex="1" parent="EF0tD5zJlTwU-LwpF9rW-7">
          <mxGeometry y="156" width="170" height="26" as="geometry" />
        </mxCell>
        <mxCell id="EF0tD5zJlTwU-LwpF9rW-15" value="CRUD OPERATIONS &lt;br&gt;ON TABLES" style="text;html=1;resizable=0;autosize=1;align=center;verticalAlign=middle;points=[];fillColor=none;strokeColor=none;rounded=0;" vertex="1" parent="1">
          <mxGeometry x="855" y="405" width="130" height="30" as="geometry" />
        </mxCell>
        <mxCell id="EF0tD5zJlTwU-LwpF9rW-16" value="RETURN RESPONSE" style="text;html=1;resizable=0;autosize=1;align=center;verticalAlign=middle;points=[];fillColor=none;strokeColor=none;rounded=0;" vertex="1" parent="1">
          <mxGeometry x="850" y="494.5" width="140" height="20" as="geometry" />
        </mxCell>
        <mxCell id="EF0tD5zJlTwU-LwpF9rW-20" value="AP_STUDENTS" style="shape=table;startSize=30;container=1;collapsible=0;childLayout=tableLayout;fixedRows=1;rowLines=0;fontStyle=1;fontSize=12;" vertex="1" parent="1">
          <mxGeometry x="1440" y="50" width="231" height="320.0000000000002" as="geometry" />
        </mxCell>
        <mxCell id="EF0tD5zJlTwU-LwpF9rW-123" style="shape=tableRow;horizontal=0;startSize=0;swimlaneHead=0;swimlaneBody=0;top=0;left=0;bottom=0;right=0;collapsible=0;dropTarget=0;fillColor=none;points=[[0,0.5],[1,0.5]];portConstraint=eastwest;fontSize=12;" vertex="1" parent="EF0tD5zJlTwU-LwpF9rW-20">
          <mxGeometry y="30" width="231" height="30" as="geometry" />
        </mxCell>
        <mxCell id="EF0tD5zJlTwU-LwpF9rW-124" value="NO." style="shape=partialRectangle;html=1;whiteSpace=wrap;connectable=0;fillColor=#FFFFFF;top=0;left=0;bottom=0;right=0;overflow=hidden;pointerEvents=1;fontSize=12;align=center;" vertex="1" parent="EF0tD5zJlTwU-LwpF9rW-123">
          <mxGeometry width="29" height="30" as="geometry">
            <mxRectangle width="29" height="30" as="alternateBounds" />
          </mxGeometry>
        </mxCell>
        <mxCell id="EF0tD5zJlTwU-LwpF9rW-125" value="FIELDS" style="shape=partialRectangle;html=1;whiteSpace=wrap;connectable=0;fillColor=#FFFFFF;top=0;left=0;bottom=0;right=0;align=center;spacingLeft=6;overflow=hidden;fontSize=12;" vertex="1" parent="EF0tD5zJlTwU-LwpF9rW-123">
          <mxGeometry x="29" width="101" height="30" as="geometry">
            <mxRectangle width="101" height="30" as="alternateBounds" />
          </mxGeometry>
        </mxCell>
        <mxCell id="EF0tD5zJlTwU-LwpF9rW-126" value="TYPE" style="shape=partialRectangle;html=1;whiteSpace=wrap;connectable=0;fillColor=#FFFFFF;top=0;left=0;bottom=0;right=0;align=center;spacingLeft=6;overflow=hidden;fontSize=12;" vertex="1" parent="EF0tD5zJlTwU-LwpF9rW-123">
          <mxGeometry x="130" width="101" height="30" as="geometry">
            <mxRectangle width="101" height="30" as="alternateBounds" />
          </mxGeometry>
        </mxCell>
        <mxCell id="EF0tD5zJlTwU-LwpF9rW-21" value="" style="shape=tableRow;horizontal=0;startSize=0;swimlaneHead=0;swimlaneBody=0;top=0;left=0;bottom=0;right=0;collapsible=0;dropTarget=0;fillColor=none;points=[[0,0.5],[1,0.5]];portConstraint=eastwest;fontSize=12;" vertex="1" parent="EF0tD5zJlTwU-LwpF9rW-20">
          <mxGeometry y="60" width="231" height="30" as="geometry" />
        </mxCell>
        <mxCell id="EF0tD5zJlTwU-LwpF9rW-22" value="1" style="shape=partialRectangle;html=1;whiteSpace=wrap;connectable=0;fillColor=none;top=0;left=0;bottom=0;right=0;overflow=hidden;pointerEvents=1;fontSize=12;" vertex="1" parent="EF0tD5zJlTwU-LwpF9rW-21">
          <mxGeometry width="29" height="30" as="geometry">
            <mxRectangle width="29" height="30" as="alternateBounds" />
          </mxGeometry>
        </mxCell>
        <mxCell id="EF0tD5zJlTwU-LwpF9rW-23" value="EMAIL&amp;nbsp;" style="shape=partialRectangle;html=1;whiteSpace=wrap;connectable=0;fillColor=none;top=0;left=0;bottom=0;right=0;align=left;spacingLeft=6;overflow=hidden;fontSize=12;" vertex="1" parent="EF0tD5zJlTwU-LwpF9rW-21">
          <mxGeometry x="29" width="101" height="30" as="geometry">
            <mxRectangle width="101" height="30" as="alternateBounds" />
          </mxGeometry>
        </mxCell>
        <mxCell id="EF0tD5zJlTwU-LwpF9rW-114" value="STRING" style="shape=partialRectangle;html=1;whiteSpace=wrap;connectable=0;fillColor=none;top=0;left=0;bottom=0;right=0;align=left;spacingLeft=6;overflow=hidden;fontSize=12;" vertex="1" parent="EF0tD5zJlTwU-LwpF9rW-21">
          <mxGeometry x="130" width="101" height="30" as="geometry">
            <mxRectangle width="101" height="30" as="alternateBounds" />
          </mxGeometry>
        </mxCell>
        <mxCell id="EF0tD5zJlTwU-LwpF9rW-24" value="" style="shape=tableRow;horizontal=0;startSize=0;swimlaneHead=0;swimlaneBody=0;top=0;left=0;bottom=0;right=0;collapsible=0;dropTarget=0;fillColor=none;points=[[0,0.5],[1,0.5]];portConstraint=eastwest;fontSize=12;" vertex="1" parent="EF0tD5zJlTwU-LwpF9rW-20">
          <mxGeometry y="90" width="231" height="30" as="geometry" />
        </mxCell>
        <mxCell id="EF0tD5zJlTwU-LwpF9rW-25" value="2" style="shape=partialRectangle;html=1;whiteSpace=wrap;connectable=0;fillColor=none;top=0;left=0;bottom=0;right=0;overflow=hidden;fontSize=12;" vertex="1" parent="EF0tD5zJlTwU-LwpF9rW-24">
          <mxGeometry width="29" height="30" as="geometry">
            <mxRectangle width="29" height="30" as="alternateBounds" />
          </mxGeometry>
        </mxCell>
        <mxCell id="EF0tD5zJlTwU-LwpF9rW-26" value="DOB" style="shape=partialRectangle;html=1;whiteSpace=wrap;connectable=0;fillColor=none;top=0;left=0;bottom=0;right=0;align=left;spacingLeft=6;overflow=hidden;fontSize=12;" vertex="1" parent="EF0tD5zJlTwU-LwpF9rW-24">
          <mxGeometry x="29" width="101" height="30" as="geometry">
            <mxRectangle width="101" height="30" as="alternateBounds" />
          </mxGeometry>
        </mxCell>
        <mxCell id="EF0tD5zJlTwU-LwpF9rW-115" value="STRING" style="shape=partialRectangle;html=1;whiteSpace=wrap;connectable=0;fillColor=none;top=0;left=0;bottom=0;right=0;align=left;spacingLeft=6;overflow=hidden;fontSize=12;" vertex="1" parent="EF0tD5zJlTwU-LwpF9rW-24">
          <mxGeometry x="130" width="101" height="30" as="geometry">
            <mxRectangle width="101" height="30" as="alternateBounds" />
          </mxGeometry>
        </mxCell>
        <mxCell id="EF0tD5zJlTwU-LwpF9rW-27" value="" style="shape=tableRow;horizontal=0;startSize=0;swimlaneHead=0;swimlaneBody=0;top=0;left=0;bottom=0;right=0;collapsible=0;dropTarget=0;fillColor=none;points=[[0,0.5],[1,0.5]];portConstraint=eastwest;fontSize=12;" vertex="1" parent="EF0tD5zJlTwU-LwpF9rW-20">
          <mxGeometry y="120" width="231" height="30" as="geometry" />
        </mxCell>
        <mxCell id="EF0tD5zJlTwU-LwpF9rW-28" value="3" style="shape=partialRectangle;html=1;whiteSpace=wrap;connectable=0;fillColor=none;top=0;left=0;bottom=0;right=0;overflow=hidden;fontSize=12;" vertex="1" parent="EF0tD5zJlTwU-LwpF9rW-27">
          <mxGeometry width="29" height="30" as="geometry">
            <mxRectangle width="29" height="30" as="alternateBounds" />
          </mxGeometry>
        </mxCell>
        <mxCell id="EF0tD5zJlTwU-LwpF9rW-29" value="GENDER" style="shape=partialRectangle;html=1;whiteSpace=wrap;connectable=0;fillColor=none;top=0;left=0;bottom=0;right=0;align=left;spacingLeft=6;overflow=hidden;fontSize=12;" vertex="1" parent="EF0tD5zJlTwU-LwpF9rW-27">
          <mxGeometry x="29" width="101" height="30" as="geometry">
            <mxRectangle width="101" height="30" as="alternateBounds" />
          </mxGeometry>
        </mxCell>
        <mxCell id="EF0tD5zJlTwU-LwpF9rW-116" value="STRING" style="shape=partialRectangle;html=1;whiteSpace=wrap;connectable=0;fillColor=none;top=0;left=0;bottom=0;right=0;align=left;spacingLeft=6;overflow=hidden;fontSize=12;" vertex="1" parent="EF0tD5zJlTwU-LwpF9rW-27">
          <mxGeometry x="130" width="101" height="30" as="geometry">
            <mxRectangle width="101" height="30" as="alternateBounds" />
          </mxGeometry>
        </mxCell>
        <mxCell id="EF0tD5zJlTwU-LwpF9rW-34" style="shape=tableRow;horizontal=0;startSize=0;swimlaneHead=0;swimlaneBody=0;top=0;left=0;bottom=0;right=0;collapsible=0;dropTarget=0;fillColor=none;points=[[0,0.5],[1,0.5]];portConstraint=eastwest;fontSize=12;" vertex="1" parent="EF0tD5zJlTwU-LwpF9rW-20">
          <mxGeometry y="150" width="231" height="30" as="geometry" />
        </mxCell>
        <mxCell id="EF0tD5zJlTwU-LwpF9rW-35" value="4" style="shape=partialRectangle;html=1;whiteSpace=wrap;connectable=0;fillColor=none;top=0;left=0;bottom=0;right=0;overflow=hidden;fontSize=12;" vertex="1" parent="EF0tD5zJlTwU-LwpF9rW-34">
          <mxGeometry width="29" height="30" as="geometry">
            <mxRectangle width="29" height="30" as="alternateBounds" />
          </mxGeometry>
        </mxCell>
        <mxCell id="EF0tD5zJlTwU-LwpF9rW-36" value="NAME" style="shape=partialRectangle;html=1;whiteSpace=wrap;connectable=0;fillColor=none;top=0;left=0;bottom=0;right=0;align=left;spacingLeft=6;overflow=hidden;fontSize=12;" vertex="1" parent="EF0tD5zJlTwU-LwpF9rW-34">
          <mxGeometry x="29" width="101" height="30" as="geometry">
            <mxRectangle width="101" height="30" as="alternateBounds" />
          </mxGeometry>
        </mxCell>
        <mxCell id="EF0tD5zJlTwU-LwpF9rW-117" value="STRING" style="shape=partialRectangle;html=1;whiteSpace=wrap;connectable=0;fillColor=none;top=0;left=0;bottom=0;right=0;align=left;spacingLeft=6;overflow=hidden;fontSize=12;" vertex="1" parent="EF0tD5zJlTwU-LwpF9rW-34">
          <mxGeometry x="130" width="101" height="30" as="geometry">
            <mxRectangle width="101" height="30" as="alternateBounds" />
          </mxGeometry>
        </mxCell>
        <mxCell id="EF0tD5zJlTwU-LwpF9rW-39" style="shape=tableRow;horizontal=0;startSize=0;swimlaneHead=0;swimlaneBody=0;top=0;left=0;bottom=0;right=0;collapsible=0;dropTarget=0;fillColor=none;points=[[0,0.5],[1,0.5]];portConstraint=eastwest;fontSize=12;" vertex="1" parent="EF0tD5zJlTwU-LwpF9rW-20">
          <mxGeometry y="180" width="231" height="30" as="geometry" />
        </mxCell>
        <mxCell id="EF0tD5zJlTwU-LwpF9rW-40" value="5" style="shape=partialRectangle;html=1;whiteSpace=wrap;connectable=0;fillColor=none;top=0;left=0;bottom=0;right=0;overflow=hidden;fontSize=12;" vertex="1" parent="EF0tD5zJlTwU-LwpF9rW-39">
          <mxGeometry width="29" height="30" as="geometry">
            <mxRectangle width="29" height="30" as="alternateBounds" />
          </mxGeometry>
        </mxCell>
        <mxCell id="EF0tD5zJlTwU-LwpF9rW-41" value="LASTNAME" style="shape=partialRectangle;html=1;whiteSpace=wrap;connectable=0;fillColor=none;top=0;left=0;bottom=0;right=0;align=left;spacingLeft=6;overflow=hidden;fontSize=12;" vertex="1" parent="EF0tD5zJlTwU-LwpF9rW-39">
          <mxGeometry x="29" width="101" height="30" as="geometry">
            <mxRectangle width="101" height="30" as="alternateBounds" />
          </mxGeometry>
        </mxCell>
        <mxCell id="EF0tD5zJlTwU-LwpF9rW-118" value="STRING" style="shape=partialRectangle;html=1;whiteSpace=wrap;connectable=0;fillColor=none;top=0;left=0;bottom=0;right=0;align=left;spacingLeft=6;overflow=hidden;fontSize=12;" vertex="1" parent="EF0tD5zJlTwU-LwpF9rW-39">
          <mxGeometry x="130" width="101" height="30" as="geometry">
            <mxRectangle width="101" height="30" as="alternateBounds" />
          </mxGeometry>
        </mxCell>
        <mxCell id="EF0tD5zJlTwU-LwpF9rW-48" style="shape=tableRow;horizontal=0;startSize=0;swimlaneHead=0;swimlaneBody=0;top=0;left=0;bottom=0;right=0;collapsible=0;dropTarget=0;fillColor=none;points=[[0,0.5],[1,0.5]];portConstraint=eastwest;fontSize=12;" vertex="1" parent="EF0tD5zJlTwU-LwpF9rW-20">
          <mxGeometry y="210" width="231" height="30" as="geometry" />
        </mxCell>
        <mxCell id="EF0tD5zJlTwU-LwpF9rW-49" value="6" style="shape=partialRectangle;html=1;whiteSpace=wrap;connectable=0;fillColor=none;top=0;left=0;bottom=0;right=0;overflow=hidden;fontSize=12;" vertex="1" parent="EF0tD5zJlTwU-LwpF9rW-48">
          <mxGeometry width="29" height="30" as="geometry">
            <mxRectangle width="29" height="30" as="alternateBounds" />
          </mxGeometry>
        </mxCell>
        <mxCell id="EF0tD5zJlTwU-LwpF9rW-50" value="NATIONALITY" style="shape=partialRectangle;html=1;whiteSpace=wrap;connectable=0;fillColor=none;top=0;left=0;bottom=0;right=0;align=left;spacingLeft=6;overflow=hidden;fontSize=12;" vertex="1" parent="EF0tD5zJlTwU-LwpF9rW-48">
          <mxGeometry x="29" width="101" height="30" as="geometry">
            <mxRectangle width="101" height="30" as="alternateBounds" />
          </mxGeometry>
        </mxCell>
        <mxCell id="EF0tD5zJlTwU-LwpF9rW-119" value="STRING" style="shape=partialRectangle;html=1;whiteSpace=wrap;connectable=0;fillColor=none;top=0;left=0;bottom=0;right=0;align=left;spacingLeft=6;overflow=hidden;fontSize=12;" vertex="1" parent="EF0tD5zJlTwU-LwpF9rW-48">
          <mxGeometry x="130" width="101" height="30" as="geometry">
            <mxRectangle width="101" height="30" as="alternateBounds" />
          </mxGeometry>
        </mxCell>
        <mxCell id="EF0tD5zJlTwU-LwpF9rW-45" style="shape=tableRow;horizontal=0;startSize=0;swimlaneHead=0;swimlaneBody=0;top=0;left=0;bottom=0;right=0;collapsible=0;dropTarget=0;fillColor=none;points=[[0,0.5],[1,0.5]];portConstraint=eastwest;fontSize=12;" vertex="1" parent="EF0tD5zJlTwU-LwpF9rW-20">
          <mxGeometry y="240" width="231" height="30" as="geometry" />
        </mxCell>
        <mxCell id="EF0tD5zJlTwU-LwpF9rW-46" value="7" style="shape=partialRectangle;html=1;whiteSpace=wrap;connectable=0;fillColor=none;top=0;left=0;bottom=0;right=0;overflow=hidden;fontSize=12;" vertex="1" parent="EF0tD5zJlTwU-LwpF9rW-45">
          <mxGeometry width="29" height="30" as="geometry">
            <mxRectangle width="29" height="30" as="alternateBounds" />
          </mxGeometry>
        </mxCell>
        <mxCell id="EF0tD5zJlTwU-LwpF9rW-47" value="QUERIES" style="shape=partialRectangle;html=1;whiteSpace=wrap;connectable=0;fillColor=none;top=0;left=0;bottom=0;right=0;align=left;spacingLeft=6;overflow=hidden;fontSize=12;" vertex="1" parent="EF0tD5zJlTwU-LwpF9rW-45">
          <mxGeometry x="29" width="101" height="30" as="geometry">
            <mxRectangle width="101" height="30" as="alternateBounds" />
          </mxGeometry>
        </mxCell>
        <mxCell id="EF0tD5zJlTwU-LwpF9rW-120" value="LIST" style="shape=partialRectangle;html=1;whiteSpace=wrap;connectable=0;fillColor=none;top=0;left=0;bottom=0;right=0;align=left;spacingLeft=6;overflow=hidden;fontSize=12;" vertex="1" parent="EF0tD5zJlTwU-LwpF9rW-45">
          <mxGeometry x="130" width="101" height="30" as="geometry">
            <mxRectangle width="101" height="30" as="alternateBounds" />
          </mxGeometry>
        </mxCell>
        <mxCell id="EF0tD5zJlTwU-LwpF9rW-42" style="shape=tableRow;horizontal=0;startSize=0;swimlaneHead=0;swimlaneBody=0;top=0;left=0;bottom=0;right=0;collapsible=0;dropTarget=0;fillColor=none;points=[[0,0.5],[1,0.5]];portConstraint=eastwest;fontSize=12;" vertex="1" parent="EF0tD5zJlTwU-LwpF9rW-20">
          <mxGeometry y="270" width="231" height="30" as="geometry" />
        </mxCell>
        <mxCell id="EF0tD5zJlTwU-LwpF9rW-43" value="8" style="shape=partialRectangle;html=1;whiteSpace=wrap;connectable=0;fillColor=none;top=0;left=0;bottom=0;right=0;overflow=hidden;fontSize=12;" vertex="1" parent="EF0tD5zJlTwU-LwpF9rW-42">
          <mxGeometry width="29" height="30" as="geometry">
            <mxRectangle width="29" height="30" as="alternateBounds" />
          </mxGeometry>
        </mxCell>
        <mxCell id="EF0tD5zJlTwU-LwpF9rW-44" value="TIMESTAMP" style="shape=partialRectangle;html=1;whiteSpace=wrap;connectable=0;fillColor=none;top=0;left=0;bottom=0;right=0;align=left;spacingLeft=6;overflow=hidden;fontSize=12;" vertex="1" parent="EF0tD5zJlTwU-LwpF9rW-42">
          <mxGeometry x="29" width="101" height="30" as="geometry">
            <mxRectangle width="101" height="30" as="alternateBounds" />
          </mxGeometry>
        </mxCell>
        <mxCell id="EF0tD5zJlTwU-LwpF9rW-121" value="NUMBER" style="shape=partialRectangle;html=1;whiteSpace=wrap;connectable=0;fillColor=none;top=0;left=0;bottom=0;right=0;align=left;spacingLeft=6;overflow=hidden;fontSize=12;" vertex="1" parent="EF0tD5zJlTwU-LwpF9rW-42">
          <mxGeometry x="130" width="101" height="30" as="geometry">
            <mxRectangle width="101" height="30" as="alternateBounds" />
          </mxGeometry>
        </mxCell>
        <mxCell id="EF0tD5zJlTwU-LwpF9rW-51" style="shape=tableRow;horizontal=0;startSize=0;swimlaneHead=0;swimlaneBody=0;top=0;left=0;bottom=0;right=0;collapsible=0;dropTarget=0;fillColor=none;points=[[0,0.5],[1,0.5]];portConstraint=eastwest;fontSize=12;" vertex="1" parent="EF0tD5zJlTwU-LwpF9rW-20">
          <mxGeometry y="300" width="231" height="20" as="geometry" />
        </mxCell>
        <mxCell id="EF0tD5zJlTwU-LwpF9rW-52" value="9" style="shape=partialRectangle;html=1;whiteSpace=wrap;connectable=0;fillColor=none;top=0;left=0;bottom=0;right=0;overflow=hidden;fontSize=12;" vertex="1" parent="EF0tD5zJlTwU-LwpF9rW-51">
          <mxGeometry width="29" height="20" as="geometry">
            <mxRectangle width="29" height="20" as="alternateBounds" />
          </mxGeometry>
        </mxCell>
        <mxCell id="EF0tD5zJlTwU-LwpF9rW-53" value="PHONE" style="shape=partialRectangle;html=1;whiteSpace=wrap;connectable=0;fillColor=none;top=0;left=0;bottom=0;right=0;align=left;spacingLeft=6;overflow=hidden;fontSize=12;" vertex="1" parent="EF0tD5zJlTwU-LwpF9rW-51">
          <mxGeometry x="29" width="101" height="20" as="geometry">
            <mxRectangle width="101" height="20" as="alternateBounds" />
          </mxGeometry>
        </mxCell>
        <mxCell id="EF0tD5zJlTwU-LwpF9rW-122" value="NUMBER" style="shape=partialRectangle;html=1;whiteSpace=wrap;connectable=0;fillColor=none;top=0;left=0;bottom=0;right=0;align=left;spacingLeft=6;overflow=hidden;fontSize=12;" vertex="1" parent="EF0tD5zJlTwU-LwpF9rW-51">
          <mxGeometry x="130" width="101" height="20" as="geometry">
            <mxRectangle width="101" height="20" as="alternateBounds" />
          </mxGeometry>
        </mxCell>
        <mxCell id="EF0tD5zJlTwU-LwpF9rW-54" value="NOTICES" style="shape=table;startSize=30;container=1;collapsible=0;childLayout=tableLayout;fixedRows=1;rowLines=0;fontStyle=1;fontSize=12;" vertex="1" parent="1">
          <mxGeometry x="1440" y="460" width="340" height="440" as="geometry" />
        </mxCell>
        <mxCell id="EF0tD5zJlTwU-LwpF9rW-110" style="shape=tableRow;horizontal=0;startSize=0;swimlaneHead=0;swimlaneBody=0;top=0;left=0;bottom=0;right=0;collapsible=0;dropTarget=0;fillColor=none;points=[[0,0.5],[1,0.5]];portConstraint=eastwest;fontSize=12;" vertex="1" parent="EF0tD5zJlTwU-LwpF9rW-54">
          <mxGeometry y="30" width="340" height="30" as="geometry" />
        </mxCell>
        <mxCell id="EF0tD5zJlTwU-LwpF9rW-111" value="NO." style="shape=partialRectangle;html=1;whiteSpace=wrap;connectable=0;fillColor=none;top=0;left=0;bottom=0;right=0;overflow=hidden;pointerEvents=1;fontSize=12;align=center;" vertex="1" parent="EF0tD5zJlTwU-LwpF9rW-110">
          <mxGeometry width="49" height="30" as="geometry">
            <mxRectangle width="49" height="30" as="alternateBounds" />
          </mxGeometry>
        </mxCell>
        <mxCell id="EF0tD5zJlTwU-LwpF9rW-112" value="FIELDS" style="shape=partialRectangle;html=1;whiteSpace=wrap;connectable=0;fillColor=none;top=0;left=0;bottom=0;right=0;align=center;spacingLeft=6;overflow=hidden;fontSize=12;" vertex="1" parent="EF0tD5zJlTwU-LwpF9rW-110">
          <mxGeometry x="49" width="170" height="30" as="geometry">
            <mxRectangle width="170" height="30" as="alternateBounds" />
          </mxGeometry>
        </mxCell>
        <mxCell id="EF0tD5zJlTwU-LwpF9rW-113" value="TYPE" style="shape=partialRectangle;html=1;whiteSpace=wrap;connectable=0;fillColor=none;top=0;left=0;bottom=0;right=0;align=center;spacingLeft=6;overflow=hidden;fontSize=12;" vertex="1" parent="EF0tD5zJlTwU-LwpF9rW-110">
          <mxGeometry x="219" width="121" height="30" as="geometry">
            <mxRectangle width="121" height="30" as="alternateBounds" />
          </mxGeometry>
        </mxCell>
        <mxCell id="EF0tD5zJlTwU-LwpF9rW-55" value="" style="shape=tableRow;horizontal=0;startSize=0;swimlaneHead=0;swimlaneBody=0;top=0;left=0;bottom=0;right=0;collapsible=0;dropTarget=0;fillColor=none;points=[[0,0.5],[1,0.5]];portConstraint=eastwest;fontSize=12;" vertex="1" parent="EF0tD5zJlTwU-LwpF9rW-54">
          <mxGeometry y="60" width="340" height="30" as="geometry" />
        </mxCell>
        <mxCell id="EF0tD5zJlTwU-LwpF9rW-56" value="1" style="shape=partialRectangle;html=1;whiteSpace=wrap;connectable=0;fillColor=none;top=0;left=0;bottom=0;right=0;overflow=hidden;pointerEvents=1;fontSize=12;" vertex="1" parent="EF0tD5zJlTwU-LwpF9rW-55">
          <mxGeometry width="49" height="30" as="geometry">
            <mxRectangle width="49" height="30" as="alternateBounds" />
          </mxGeometry>
        </mxCell>
        <mxCell id="EF0tD5zJlTwU-LwpF9rW-57" value="NOTICEID" style="shape=partialRectangle;html=1;whiteSpace=wrap;connectable=0;fillColor=none;top=0;left=0;bottom=0;right=0;align=left;spacingLeft=6;overflow=hidden;fontSize=12;" vertex="1" parent="EF0tD5zJlTwU-LwpF9rW-55">
          <mxGeometry x="49" width="170" height="30" as="geometry">
            <mxRectangle width="170" height="30" as="alternateBounds" />
          </mxGeometry>
        </mxCell>
        <mxCell id="EF0tD5zJlTwU-LwpF9rW-91" value="STRING" style="shape=partialRectangle;html=1;whiteSpace=wrap;connectable=0;fillColor=none;top=0;left=0;bottom=0;right=0;align=left;spacingLeft=6;overflow=hidden;fontSize=12;" vertex="1" parent="EF0tD5zJlTwU-LwpF9rW-55">
          <mxGeometry x="219" width="121" height="30" as="geometry">
            <mxRectangle width="121" height="30" as="alternateBounds" />
          </mxGeometry>
        </mxCell>
        <mxCell id="EF0tD5zJlTwU-LwpF9rW-58" value="" style="shape=tableRow;horizontal=0;startSize=0;swimlaneHead=0;swimlaneBody=0;top=0;left=0;bottom=0;right=0;collapsible=0;dropTarget=0;fillColor=none;points=[[0,0.5],[1,0.5]];portConstraint=eastwest;fontSize=12;" vertex="1" parent="EF0tD5zJlTwU-LwpF9rW-54">
          <mxGeometry y="90" width="340" height="30" as="geometry" />
        </mxCell>
        <mxCell id="EF0tD5zJlTwU-LwpF9rW-59" value="2" style="shape=partialRectangle;html=1;whiteSpace=wrap;connectable=0;fillColor=none;top=0;left=0;bottom=0;right=0;overflow=hidden;fontSize=12;" vertex="1" parent="EF0tD5zJlTwU-LwpF9rW-58">
          <mxGeometry width="49" height="30" as="geometry">
            <mxRectangle width="49" height="30" as="alternateBounds" />
          </mxGeometry>
        </mxCell>
        <mxCell id="EF0tD5zJlTwU-LwpF9rW-60" value="ANYDUEATTACH" style="shape=partialRectangle;html=1;whiteSpace=wrap;connectable=0;fillColor=none;top=0;left=0;bottom=0;right=0;align=left;spacingLeft=6;overflow=hidden;fontSize=12;" vertex="1" parent="EF0tD5zJlTwU-LwpF9rW-58">
          <mxGeometry x="49" width="170" height="30" as="geometry">
            <mxRectangle width="170" height="30" as="alternateBounds" />
          </mxGeometry>
        </mxCell>
        <mxCell id="EF0tD5zJlTwU-LwpF9rW-92" value="BOOL" style="shape=partialRectangle;html=1;whiteSpace=wrap;connectable=0;fillColor=none;top=0;left=0;bottom=0;right=0;align=left;spacingLeft=6;overflow=hidden;fontSize=12;" vertex="1" parent="EF0tD5zJlTwU-LwpF9rW-58">
          <mxGeometry x="219" width="121" height="30" as="geometry">
            <mxRectangle width="121" height="30" as="alternateBounds" />
          </mxGeometry>
        </mxCell>
        <mxCell id="EF0tD5zJlTwU-LwpF9rW-61" value="" style="shape=tableRow;horizontal=0;startSize=0;swimlaneHead=0;swimlaneBody=0;top=0;left=0;bottom=0;right=0;collapsible=0;dropTarget=0;fillColor=none;points=[[0,0.5],[1,0.5]];portConstraint=eastwest;fontSize=12;" vertex="1" parent="EF0tD5zJlTwU-LwpF9rW-54">
          <mxGeometry y="120" width="340" height="35" as="geometry" />
        </mxCell>
        <mxCell id="EF0tD5zJlTwU-LwpF9rW-62" value="3" style="shape=partialRectangle;html=1;whiteSpace=wrap;connectable=0;fillColor=none;top=0;left=0;bottom=0;right=0;overflow=hidden;fontSize=12;" vertex="1" parent="EF0tD5zJlTwU-LwpF9rW-61">
          <mxGeometry width="49" height="35" as="geometry">
            <mxRectangle width="49" height="35" as="alternateBounds" />
          </mxGeometry>
        </mxCell>
        <mxCell id="EF0tD5zJlTwU-LwpF9rW-63" value="ANYFILEATTACH" style="shape=partialRectangle;html=1;whiteSpace=wrap;connectable=0;fillColor=none;top=0;left=0;bottom=0;right=0;align=left;spacingLeft=6;overflow=hidden;fontSize=12;" vertex="1" parent="EF0tD5zJlTwU-LwpF9rW-61">
          <mxGeometry x="49" width="170" height="35" as="geometry">
            <mxRectangle width="170" height="35" as="alternateBounds" />
          </mxGeometry>
        </mxCell>
        <mxCell id="EF0tD5zJlTwU-LwpF9rW-93" value="BOOL" style="shape=partialRectangle;html=1;whiteSpace=wrap;connectable=0;fillColor=none;top=0;left=0;bottom=0;right=0;align=left;spacingLeft=6;overflow=hidden;fontSize=12;" vertex="1" parent="EF0tD5zJlTwU-LwpF9rW-61">
          <mxGeometry x="219" width="121" height="35" as="geometry">
            <mxRectangle width="121" height="35" as="alternateBounds" />
          </mxGeometry>
        </mxCell>
        <mxCell id="EF0tD5zJlTwU-LwpF9rW-64" style="shape=tableRow;horizontal=0;startSize=0;swimlaneHead=0;swimlaneBody=0;top=0;left=0;bottom=0;right=0;collapsible=0;dropTarget=0;fillColor=none;points=[[0,0.5],[1,0.5]];portConstraint=eastwest;fontSize=12;" vertex="1" parent="EF0tD5zJlTwU-LwpF9rW-54">
          <mxGeometry y="155" width="340" height="30" as="geometry" />
        </mxCell>
        <mxCell id="EF0tD5zJlTwU-LwpF9rW-65" value="4" style="shape=partialRectangle;html=1;whiteSpace=wrap;connectable=0;fillColor=none;top=0;left=0;bottom=0;right=0;overflow=hidden;fontSize=12;" vertex="1" parent="EF0tD5zJlTwU-LwpF9rW-64">
          <mxGeometry width="49" height="30" as="geometry">
            <mxRectangle width="49" height="30" as="alternateBounds" />
          </mxGeometry>
        </mxCell>
        <mxCell id="EF0tD5zJlTwU-LwpF9rW-66" value="APPLICATION NUMBER" style="shape=partialRectangle;html=1;whiteSpace=wrap;connectable=0;fillColor=none;top=0;left=0;bottom=0;right=0;align=left;spacingLeft=6;overflow=hidden;fontSize=12;" vertex="1" parent="EF0tD5zJlTwU-LwpF9rW-64">
          <mxGeometry x="49" width="170" height="30" as="geometry">
            <mxRectangle width="170" height="30" as="alternateBounds" />
          </mxGeometry>
        </mxCell>
        <mxCell id="EF0tD5zJlTwU-LwpF9rW-94" value="STRING" style="shape=partialRectangle;html=1;whiteSpace=wrap;connectable=0;fillColor=none;top=0;left=0;bottom=0;right=0;align=left;spacingLeft=6;overflow=hidden;fontSize=12;" vertex="1" parent="EF0tD5zJlTwU-LwpF9rW-64">
          <mxGeometry x="219" width="121" height="30" as="geometry">
            <mxRectangle width="121" height="30" as="alternateBounds" />
          </mxGeometry>
        </mxCell>
        <mxCell id="EF0tD5zJlTwU-LwpF9rW-67" style="shape=tableRow;horizontal=0;startSize=0;swimlaneHead=0;swimlaneBody=0;top=0;left=0;bottom=0;right=0;collapsible=0;dropTarget=0;fillColor=none;points=[[0,0.5],[1,0.5]];portConstraint=eastwest;fontSize=12;" vertex="1" parent="EF0tD5zJlTwU-LwpF9rW-54">
          <mxGeometry y="185" width="340" height="45" as="geometry" />
        </mxCell>
        <mxCell id="EF0tD5zJlTwU-LwpF9rW-68" value="5" style="shape=partialRectangle;html=1;whiteSpace=wrap;connectable=0;fillColor=none;top=0;left=0;bottom=0;right=0;overflow=hidden;fontSize=12;" vertex="1" parent="EF0tD5zJlTwU-LwpF9rW-67">
          <mxGeometry width="49" height="45" as="geometry">
            <mxRectangle width="49" height="45" as="alternateBounds" />
          </mxGeometry>
        </mxCell>
        <mxCell id="EF0tD5zJlTwU-LwpF9rW-69" value="APPLICATION SPECIFIC" style="shape=partialRectangle;html=1;whiteSpace=wrap;connectable=0;fillColor=none;top=0;left=0;bottom=0;right=0;align=left;spacingLeft=6;overflow=hidden;fontSize=12;" vertex="1" parent="EF0tD5zJlTwU-LwpF9rW-67">
          <mxGeometry x="49" width="170" height="45" as="geometry">
            <mxRectangle width="170" height="45" as="alternateBounds" />
          </mxGeometry>
        </mxCell>
        <mxCell id="EF0tD5zJlTwU-LwpF9rW-95" value="BOOL" style="shape=partialRectangle;html=1;whiteSpace=wrap;connectable=0;fillColor=none;top=0;left=0;bottom=0;right=0;align=left;spacingLeft=6;overflow=hidden;fontSize=12;" vertex="1" parent="EF0tD5zJlTwU-LwpF9rW-67">
          <mxGeometry x="219" width="121" height="45" as="geometry">
            <mxRectangle width="121" height="45" as="alternateBounds" />
          </mxGeometry>
        </mxCell>
        <mxCell id="EF0tD5zJlTwU-LwpF9rW-70" style="shape=tableRow;horizontal=0;startSize=0;swimlaneHead=0;swimlaneBody=0;top=0;left=0;bottom=0;right=0;collapsible=0;dropTarget=0;fillColor=none;points=[[0,0.5],[1,0.5]];portConstraint=eastwest;fontSize=12;" vertex="1" parent="EF0tD5zJlTwU-LwpF9rW-54">
          <mxGeometry y="230" width="340" height="30" as="geometry" />
        </mxCell>
        <mxCell id="EF0tD5zJlTwU-LwpF9rW-71" value="6" style="shape=partialRectangle;html=1;whiteSpace=wrap;connectable=0;fillColor=none;top=0;left=0;bottom=0;right=0;overflow=hidden;fontSize=12;" vertex="1" parent="EF0tD5zJlTwU-LwpF9rW-70">
          <mxGeometry width="49" height="30" as="geometry">
            <mxRectangle width="49" height="30" as="alternateBounds" />
          </mxGeometry>
        </mxCell>
        <mxCell id="EF0tD5zJlTwU-LwpF9rW-72" value="BRANCH" style="shape=partialRectangle;html=1;whiteSpace=wrap;connectable=0;fillColor=none;top=0;left=0;bottom=0;right=0;align=left;spacingLeft=6;overflow=hidden;fontSize=12;" vertex="1" parent="EF0tD5zJlTwU-LwpF9rW-70">
          <mxGeometry x="49" width="170" height="30" as="geometry">
            <mxRectangle width="170" height="30" as="alternateBounds" />
          </mxGeometry>
        </mxCell>
        <mxCell id="EF0tD5zJlTwU-LwpF9rW-96" value="STRING" style="shape=partialRectangle;html=1;whiteSpace=wrap;connectable=0;fillColor=none;top=0;left=0;bottom=0;right=0;align=left;spacingLeft=6;overflow=hidden;fontSize=12;" vertex="1" parent="EF0tD5zJlTwU-LwpF9rW-70">
          <mxGeometry x="219" width="121" height="30" as="geometry">
            <mxRectangle width="121" height="30" as="alternateBounds" />
          </mxGeometry>
        </mxCell>
        <mxCell id="EF0tD5zJlTwU-LwpF9rW-73" style="shape=tableRow;horizontal=0;startSize=0;swimlaneHead=0;swimlaneBody=0;top=0;left=0;bottom=0;right=0;collapsible=0;dropTarget=0;fillColor=none;points=[[0,0.5],[1,0.5]];portConstraint=eastwest;fontSize=12;" vertex="1" parent="EF0tD5zJlTwU-LwpF9rW-54">
          <mxGeometry y="260" width="340" height="30" as="geometry" />
        </mxCell>
        <mxCell id="EF0tD5zJlTwU-LwpF9rW-74" value="7" style="shape=partialRectangle;html=1;whiteSpace=wrap;connectable=0;fillColor=none;top=0;left=0;bottom=0;right=0;overflow=hidden;fontSize=12;" vertex="1" parent="EF0tD5zJlTwU-LwpF9rW-73">
          <mxGeometry width="49" height="30" as="geometry">
            <mxRectangle width="49" height="30" as="alternateBounds" />
          </mxGeometry>
        </mxCell>
        <mxCell id="EF0tD5zJlTwU-LwpF9rW-75" value="DESCRIPTION" style="shape=partialRectangle;html=1;whiteSpace=wrap;connectable=0;fillColor=none;top=0;left=0;bottom=0;right=0;align=left;spacingLeft=6;overflow=hidden;fontSize=12;" vertex="1" parent="EF0tD5zJlTwU-LwpF9rW-73">
          <mxGeometry x="49" width="170" height="30" as="geometry">
            <mxRectangle width="170" height="30" as="alternateBounds" />
          </mxGeometry>
        </mxCell>
        <mxCell id="EF0tD5zJlTwU-LwpF9rW-97" value="STRING" style="shape=partialRectangle;html=1;whiteSpace=wrap;connectable=0;fillColor=none;top=0;left=0;bottom=0;right=0;align=left;spacingLeft=6;overflow=hidden;fontSize=12;" vertex="1" parent="EF0tD5zJlTwU-LwpF9rW-73">
          <mxGeometry x="219" width="121" height="30" as="geometry">
            <mxRectangle width="121" height="30" as="alternateBounds" />
          </mxGeometry>
        </mxCell>
        <mxCell id="EF0tD5zJlTwU-LwpF9rW-79" style="shape=tableRow;horizontal=0;startSize=0;swimlaneHead=0;swimlaneBody=0;top=0;left=0;bottom=0;right=0;collapsible=0;dropTarget=0;fillColor=none;points=[[0,0.5],[1,0.5]];portConstraint=eastwest;fontSize=12;" vertex="1" parent="EF0tD5zJlTwU-LwpF9rW-54">
          <mxGeometry y="290" width="340" height="30" as="geometry" />
        </mxCell>
        <mxCell id="EF0tD5zJlTwU-LwpF9rW-80" value="8" style="shape=partialRectangle;html=1;whiteSpace=wrap;connectable=0;fillColor=none;top=0;left=0;bottom=0;right=0;overflow=hidden;fontSize=12;" vertex="1" parent="EF0tD5zJlTwU-LwpF9rW-79">
          <mxGeometry width="49" height="30" as="geometry">
            <mxRectangle width="49" height="30" as="alternateBounds" />
          </mxGeometry>
        </mxCell>
        <mxCell id="EF0tD5zJlTwU-LwpF9rW-81" value="DUE DATE" style="shape=partialRectangle;html=1;whiteSpace=wrap;connectable=0;fillColor=none;top=0;left=0;bottom=0;right=0;align=left;spacingLeft=6;overflow=hidden;fontSize=12;" vertex="1" parent="EF0tD5zJlTwU-LwpF9rW-79">
          <mxGeometry x="49" width="170" height="30" as="geometry">
            <mxRectangle width="170" height="30" as="alternateBounds" />
          </mxGeometry>
        </mxCell>
        <mxCell id="EF0tD5zJlTwU-LwpF9rW-98" value="STRING" style="shape=partialRectangle;html=1;whiteSpace=wrap;connectable=0;fillColor=none;top=0;left=0;bottom=0;right=0;align=left;spacingLeft=6;overflow=hidden;fontSize=12;" vertex="1" parent="EF0tD5zJlTwU-LwpF9rW-79">
          <mxGeometry x="219" width="121" height="30" as="geometry">
            <mxRectangle width="121" height="30" as="alternateBounds" />
          </mxGeometry>
        </mxCell>
        <mxCell id="EF0tD5zJlTwU-LwpF9rW-76" style="shape=tableRow;horizontal=0;startSize=0;swimlaneHead=0;swimlaneBody=0;top=0;left=0;bottom=0;right=0;collapsible=0;dropTarget=0;fillColor=none;points=[[0,0.5],[1,0.5]];portConstraint=eastwest;fontSize=12;" vertex="1" parent="EF0tD5zJlTwU-LwpF9rW-54">
          <mxGeometry y="320" width="340" height="30" as="geometry" />
        </mxCell>
        <mxCell id="EF0tD5zJlTwU-LwpF9rW-77" value="9" style="shape=partialRectangle;html=1;whiteSpace=wrap;connectable=0;fillColor=none;top=0;left=0;bottom=0;right=0;overflow=hidden;fontSize=12;" vertex="1" parent="EF0tD5zJlTwU-LwpF9rW-76">
          <mxGeometry width="49" height="30" as="geometry">
            <mxRectangle width="49" height="30" as="alternateBounds" />
          </mxGeometry>
        </mxCell>
        <mxCell id="EF0tD5zJlTwU-LwpF9rW-78" value="FORANYSPECIFICSTREAM" style="shape=partialRectangle;html=1;whiteSpace=wrap;connectable=0;fillColor=none;top=0;left=0;bottom=0;right=0;align=left;spacingLeft=6;overflow=hidden;fontSize=12;" vertex="1" parent="EF0tD5zJlTwU-LwpF9rW-76">
          <mxGeometry x="49" width="170" height="30" as="geometry">
            <mxRectangle width="170" height="30" as="alternateBounds" />
          </mxGeometry>
        </mxCell>
        <mxCell id="EF0tD5zJlTwU-LwpF9rW-99" value="BOOL" style="shape=partialRectangle;html=1;whiteSpace=wrap;connectable=0;fillColor=none;top=0;left=0;bottom=0;right=0;align=left;spacingLeft=6;overflow=hidden;fontSize=12;" vertex="1" parent="EF0tD5zJlTwU-LwpF9rW-76">
          <mxGeometry x="219" width="121" height="30" as="geometry">
            <mxRectangle width="121" height="30" as="alternateBounds" />
          </mxGeometry>
        </mxCell>
        <mxCell id="EF0tD5zJlTwU-LwpF9rW-193" style="shape=tableRow;horizontal=0;startSize=0;swimlaneHead=0;swimlaneBody=0;top=0;left=0;bottom=0;right=0;collapsible=0;dropTarget=0;fillColor=none;points=[[0,0.5],[1,0.5]];portConstraint=eastwest;fontSize=12;" vertex="1" parent="EF0tD5zJlTwU-LwpF9rW-54">
          <mxGeometry y="350" width="340" height="30" as="geometry" />
        </mxCell>
        <mxCell id="EF0tD5zJlTwU-LwpF9rW-194" value="10" style="shape=partialRectangle;html=1;whiteSpace=wrap;connectable=0;fillColor=none;top=0;left=0;bottom=0;right=0;overflow=hidden;fontSize=12;" vertex="1" parent="EF0tD5zJlTwU-LwpF9rW-193">
          <mxGeometry width="49" height="30" as="geometry">
            <mxRectangle width="49" height="30" as="alternateBounds" />
          </mxGeometry>
        </mxCell>
        <mxCell id="EF0tD5zJlTwU-LwpF9rW-195" value="STREAM" style="shape=partialRectangle;html=1;whiteSpace=wrap;connectable=0;fillColor=none;top=0;left=0;bottom=0;right=0;align=left;spacingLeft=6;overflow=hidden;fontSize=12;" vertex="1" parent="EF0tD5zJlTwU-LwpF9rW-193">
          <mxGeometry x="49" width="170" height="30" as="geometry">
            <mxRectangle width="170" height="30" as="alternateBounds" />
          </mxGeometry>
        </mxCell>
        <mxCell id="EF0tD5zJlTwU-LwpF9rW-196" value="STRING" style="shape=partialRectangle;html=1;whiteSpace=wrap;connectable=0;fillColor=none;top=0;left=0;bottom=0;right=0;align=left;spacingLeft=6;overflow=hidden;fontSize=12;" vertex="1" parent="EF0tD5zJlTwU-LwpF9rW-193">
          <mxGeometry x="219" width="121" height="30" as="geometry">
            <mxRectangle width="121" height="30" as="alternateBounds" />
          </mxGeometry>
        </mxCell>
        <mxCell id="EF0tD5zJlTwU-LwpF9rW-88" style="shape=tableRow;horizontal=0;startSize=0;swimlaneHead=0;swimlaneBody=0;top=0;left=0;bottom=0;right=0;collapsible=0;dropTarget=0;fillColor=none;points=[[0,0.5],[1,0.5]];portConstraint=eastwest;fontSize=12;" vertex="1" parent="EF0tD5zJlTwU-LwpF9rW-54">
          <mxGeometry y="380" width="340" height="30" as="geometry" />
        </mxCell>
        <mxCell id="EF0tD5zJlTwU-LwpF9rW-89" value="10" style="shape=partialRectangle;html=1;whiteSpace=wrap;connectable=0;fillColor=none;top=0;left=0;bottom=0;right=0;overflow=hidden;fontSize=12;" vertex="1" parent="EF0tD5zJlTwU-LwpF9rW-88">
          <mxGeometry width="49" height="30" as="geometry">
            <mxRectangle width="49" height="30" as="alternateBounds" />
          </mxGeometry>
        </mxCell>
        <mxCell id="EF0tD5zJlTwU-LwpF9rW-90" value="STREAM" style="shape=partialRectangle;html=1;whiteSpace=wrap;connectable=0;fillColor=none;top=0;left=0;bottom=0;right=0;align=left;spacingLeft=6;overflow=hidden;fontSize=12;" vertex="1" parent="EF0tD5zJlTwU-LwpF9rW-88">
          <mxGeometry x="49" width="170" height="30" as="geometry">
            <mxRectangle width="170" height="30" as="alternateBounds" />
          </mxGeometry>
        </mxCell>
        <mxCell id="EF0tD5zJlTwU-LwpF9rW-100" value="STRING" style="shape=partialRectangle;html=1;whiteSpace=wrap;connectable=0;fillColor=none;top=0;left=0;bottom=0;right=0;align=left;spacingLeft=6;overflow=hidden;fontSize=12;" vertex="1" parent="EF0tD5zJlTwU-LwpF9rW-88">
          <mxGeometry x="219" width="121" height="30" as="geometry">
            <mxRectangle width="121" height="30" as="alternateBounds" />
          </mxGeometry>
        </mxCell>
        <mxCell id="EF0tD5zJlTwU-LwpF9rW-85" style="shape=tableRow;horizontal=0;startSize=0;swimlaneHead=0;swimlaneBody=0;top=0;left=0;bottom=0;right=0;collapsible=0;dropTarget=0;fillColor=none;points=[[0,0.5],[1,0.5]];portConstraint=eastwest;fontSize=12;" vertex="1" parent="EF0tD5zJlTwU-LwpF9rW-54">
          <mxGeometry y="410" width="340" height="30" as="geometry" />
        </mxCell>
        <mxCell id="EF0tD5zJlTwU-LwpF9rW-86" value="11" style="shape=partialRectangle;html=1;whiteSpace=wrap;connectable=0;fillColor=none;top=0;left=0;bottom=0;right=0;overflow=hidden;fontSize=12;" vertex="1" parent="EF0tD5zJlTwU-LwpF9rW-85">
          <mxGeometry width="49" height="30" as="geometry">
            <mxRectangle width="49" height="30" as="alternateBounds" />
          </mxGeometry>
        </mxCell>
        <mxCell id="EF0tD5zJlTwU-LwpF9rW-87" value="TITLE" style="shape=partialRectangle;html=1;whiteSpace=wrap;connectable=0;fillColor=none;top=0;left=0;bottom=0;right=0;align=left;spacingLeft=6;overflow=hidden;fontSize=12;" vertex="1" parent="EF0tD5zJlTwU-LwpF9rW-85">
          <mxGeometry x="49" width="170" height="30" as="geometry">
            <mxRectangle width="170" height="30" as="alternateBounds" />
          </mxGeometry>
        </mxCell>
        <mxCell id="EF0tD5zJlTwU-LwpF9rW-101" value="STRING" style="shape=partialRectangle;html=1;whiteSpace=wrap;connectable=0;fillColor=none;top=0;left=0;bottom=0;right=0;align=left;spacingLeft=6;overflow=hidden;fontSize=12;" vertex="1" parent="EF0tD5zJlTwU-LwpF9rW-85">
          <mxGeometry x="219" width="121" height="30" as="geometry">
            <mxRectangle width="121" height="30" as="alternateBounds" />
          </mxGeometry>
        </mxCell>
        <mxCell id="EF0tD5zJlTwU-LwpF9rW-127" value="APPLICATIONS" style="shape=table;startSize=30;container=1;collapsible=0;childLayout=tableLayout;fixedRows=1;rowLines=0;fontStyle=1;fontSize=12;" vertex="1" parent="1">
          <mxGeometry x="1450" y="950" width="340" height="349" as="geometry" />
        </mxCell>
        <mxCell id="EF0tD5zJlTwU-LwpF9rW-128" style="shape=tableRow;horizontal=0;startSize=0;swimlaneHead=0;swimlaneBody=0;top=0;left=0;bottom=0;right=0;collapsible=0;dropTarget=0;fillColor=none;points=[[0,0.5],[1,0.5]];portConstraint=eastwest;fontSize=12;" vertex="1" parent="EF0tD5zJlTwU-LwpF9rW-127">
          <mxGeometry y="30" width="340" height="30" as="geometry" />
        </mxCell>
        <mxCell id="EF0tD5zJlTwU-LwpF9rW-129" value="NO." style="shape=partialRectangle;html=1;whiteSpace=wrap;connectable=0;fillColor=none;top=0;left=0;bottom=0;right=0;overflow=hidden;pointerEvents=1;fontSize=12;align=center;" vertex="1" parent="EF0tD5zJlTwU-LwpF9rW-128">
          <mxGeometry width="49" height="30" as="geometry">
            <mxRectangle width="49" height="30" as="alternateBounds" />
          </mxGeometry>
        </mxCell>
        <mxCell id="EF0tD5zJlTwU-LwpF9rW-130" value="FIELDS" style="shape=partialRectangle;html=1;whiteSpace=wrap;connectable=0;fillColor=none;top=0;left=0;bottom=0;right=0;align=center;spacingLeft=6;overflow=hidden;fontSize=12;" vertex="1" parent="EF0tD5zJlTwU-LwpF9rW-128">
          <mxGeometry x="49" width="170" height="30" as="geometry">
            <mxRectangle width="170" height="30" as="alternateBounds" />
          </mxGeometry>
        </mxCell>
        <mxCell id="EF0tD5zJlTwU-LwpF9rW-131" value="TYPE" style="shape=partialRectangle;html=1;whiteSpace=wrap;connectable=0;fillColor=none;top=0;left=0;bottom=0;right=0;align=center;spacingLeft=6;overflow=hidden;fontSize=12;" vertex="1" parent="EF0tD5zJlTwU-LwpF9rW-128">
          <mxGeometry x="219" width="121" height="30" as="geometry">
            <mxRectangle width="121" height="30" as="alternateBounds" />
          </mxGeometry>
        </mxCell>
        <mxCell id="EF0tD5zJlTwU-LwpF9rW-132" value="" style="shape=tableRow;horizontal=0;startSize=0;swimlaneHead=0;swimlaneBody=0;top=0;left=0;bottom=0;right=0;collapsible=0;dropTarget=0;fillColor=none;points=[[0,0.5],[1,0.5]];portConstraint=eastwest;fontSize=12;" vertex="1" parent="EF0tD5zJlTwU-LwpF9rW-127">
          <mxGeometry y="60" width="340" height="30" as="geometry" />
        </mxCell>
        <mxCell id="EF0tD5zJlTwU-LwpF9rW-133" value="1" style="shape=partialRectangle;html=1;whiteSpace=wrap;connectable=0;fillColor=none;top=0;left=0;bottom=0;right=0;overflow=hidden;pointerEvents=1;fontSize=12;" vertex="1" parent="EF0tD5zJlTwU-LwpF9rW-132">
          <mxGeometry width="49" height="30" as="geometry">
            <mxRectangle width="49" height="30" as="alternateBounds" />
          </mxGeometry>
        </mxCell>
        <mxCell id="EF0tD5zJlTwU-LwpF9rW-134" value="APPLICATIONID" style="shape=partialRectangle;html=1;whiteSpace=wrap;connectable=0;fillColor=none;top=0;left=0;bottom=0;right=0;align=left;spacingLeft=6;overflow=hidden;fontSize=12;" vertex="1" parent="EF0tD5zJlTwU-LwpF9rW-132">
          <mxGeometry x="49" width="170" height="30" as="geometry">
            <mxRectangle width="170" height="30" as="alternateBounds" />
          </mxGeometry>
        </mxCell>
        <mxCell id="EF0tD5zJlTwU-LwpF9rW-135" value="STRING" style="shape=partialRectangle;html=1;whiteSpace=wrap;connectable=0;fillColor=none;top=0;left=0;bottom=0;right=0;align=left;spacingLeft=6;overflow=hidden;fontSize=12;" vertex="1" parent="EF0tD5zJlTwU-LwpF9rW-132">
          <mxGeometry x="219" width="121" height="30" as="geometry">
            <mxRectangle width="121" height="30" as="alternateBounds" />
          </mxGeometry>
        </mxCell>
        <mxCell id="EF0tD5zJlTwU-LwpF9rW-136" value="" style="shape=tableRow;horizontal=0;startSize=0;swimlaneHead=0;swimlaneBody=0;top=0;left=0;bottom=0;right=0;collapsible=0;dropTarget=0;fillColor=none;points=[[0,0.5],[1,0.5]];portConstraint=eastwest;fontSize=12;" vertex="1" parent="EF0tD5zJlTwU-LwpF9rW-127">
          <mxGeometry y="90" width="340" height="30" as="geometry" />
        </mxCell>
        <mxCell id="EF0tD5zJlTwU-LwpF9rW-137" value="2" style="shape=partialRectangle;html=1;whiteSpace=wrap;connectable=0;fillColor=none;top=0;left=0;bottom=0;right=0;overflow=hidden;fontSize=12;" vertex="1" parent="EF0tD5zJlTwU-LwpF9rW-136">
          <mxGeometry width="49" height="30" as="geometry">
            <mxRectangle width="49" height="30" as="alternateBounds" />
          </mxGeometry>
        </mxCell>
        <mxCell id="EF0tD5zJlTwU-LwpF9rW-138" value="BRANCH" style="shape=partialRectangle;html=1;whiteSpace=wrap;connectable=0;fillColor=none;top=0;left=0;bottom=0;right=0;align=left;spacingLeft=6;overflow=hidden;fontSize=12;" vertex="1" parent="EF0tD5zJlTwU-LwpF9rW-136">
          <mxGeometry x="49" width="170" height="30" as="geometry">
            <mxRectangle width="170" height="30" as="alternateBounds" />
          </mxGeometry>
        </mxCell>
        <mxCell id="EF0tD5zJlTwU-LwpF9rW-139" value="STRING" style="shape=partialRectangle;html=1;whiteSpace=wrap;connectable=0;fillColor=none;top=0;left=0;bottom=0;right=0;align=left;spacingLeft=6;overflow=hidden;fontSize=12;" vertex="1" parent="EF0tD5zJlTwU-LwpF9rW-136">
          <mxGeometry x="219" width="121" height="30" as="geometry">
            <mxRectangle width="121" height="30" as="alternateBounds" />
          </mxGeometry>
        </mxCell>
        <mxCell id="EF0tD5zJlTwU-LwpF9rW-140" value="" style="shape=tableRow;horizontal=0;startSize=0;swimlaneHead=0;swimlaneBody=0;top=0;left=0;bottom=0;right=0;collapsible=0;dropTarget=0;fillColor=none;points=[[0,0.5],[1,0.5]];portConstraint=eastwest;fontSize=12;" vertex="1" parent="EF0tD5zJlTwU-LwpF9rW-127">
          <mxGeometry y="120" width="340" height="35" as="geometry" />
        </mxCell>
        <mxCell id="EF0tD5zJlTwU-LwpF9rW-141" value="3" style="shape=partialRectangle;html=1;whiteSpace=wrap;connectable=0;fillColor=none;top=0;left=0;bottom=0;right=0;overflow=hidden;fontSize=12;" vertex="1" parent="EF0tD5zJlTwU-LwpF9rW-140">
          <mxGeometry width="49" height="35" as="geometry">
            <mxRectangle width="49" height="35" as="alternateBounds" />
          </mxGeometry>
        </mxCell>
        <mxCell id="EF0tD5zJlTwU-LwpF9rW-142" value="DESCRIPTION" style="shape=partialRectangle;html=1;whiteSpace=wrap;connectable=0;fillColor=none;top=0;left=0;bottom=0;right=0;align=left;spacingLeft=6;overflow=hidden;fontSize=12;" vertex="1" parent="EF0tD5zJlTwU-LwpF9rW-140">
          <mxGeometry x="49" width="170" height="35" as="geometry">
            <mxRectangle width="170" height="35" as="alternateBounds" />
          </mxGeometry>
        </mxCell>
        <mxCell id="EF0tD5zJlTwU-LwpF9rW-143" value="STRING" style="shape=partialRectangle;html=1;whiteSpace=wrap;connectable=0;fillColor=none;top=0;left=0;bottom=0;right=0;align=left;spacingLeft=6;overflow=hidden;fontSize=12;" vertex="1" parent="EF0tD5zJlTwU-LwpF9rW-140">
          <mxGeometry x="219" width="121" height="35" as="geometry">
            <mxRectangle width="121" height="35" as="alternateBounds" />
          </mxGeometry>
        </mxCell>
        <mxCell id="EF0tD5zJlTwU-LwpF9rW-144" style="shape=tableRow;horizontal=0;startSize=0;swimlaneHead=0;swimlaneBody=0;top=0;left=0;bottom=0;right=0;collapsible=0;dropTarget=0;fillColor=none;points=[[0,0.5],[1,0.5]];portConstraint=eastwest;fontSize=12;" vertex="1" parent="EF0tD5zJlTwU-LwpF9rW-127">
          <mxGeometry y="155" width="340" height="30" as="geometry" />
        </mxCell>
        <mxCell id="EF0tD5zJlTwU-LwpF9rW-145" value="4" style="shape=partialRectangle;html=1;whiteSpace=wrap;connectable=0;fillColor=none;top=0;left=0;bottom=0;right=0;overflow=hidden;fontSize=12;" vertex="1" parent="EF0tD5zJlTwU-LwpF9rW-144">
          <mxGeometry width="49" height="30" as="geometry">
            <mxRectangle width="49" height="30" as="alternateBounds" />
          </mxGeometry>
        </mxCell>
        <mxCell id="EF0tD5zJlTwU-LwpF9rW-146" value="FEES" style="shape=partialRectangle;html=1;whiteSpace=wrap;connectable=0;fillColor=none;top=0;left=0;bottom=0;right=0;align=left;spacingLeft=6;overflow=hidden;fontSize=12;" vertex="1" parent="EF0tD5zJlTwU-LwpF9rW-144">
          <mxGeometry x="49" width="170" height="30" as="geometry">
            <mxRectangle width="170" height="30" as="alternateBounds" />
          </mxGeometry>
        </mxCell>
        <mxCell id="EF0tD5zJlTwU-LwpF9rW-147" value="NUMBER" style="shape=partialRectangle;html=1;whiteSpace=wrap;connectable=0;fillColor=none;top=0;left=0;bottom=0;right=0;align=left;spacingLeft=6;overflow=hidden;fontSize=12;" vertex="1" parent="EF0tD5zJlTwU-LwpF9rW-144">
          <mxGeometry x="219" width="121" height="30" as="geometry">
            <mxRectangle width="121" height="30" as="alternateBounds" />
          </mxGeometry>
        </mxCell>
        <mxCell id="EF0tD5zJlTwU-LwpF9rW-148" style="shape=tableRow;horizontal=0;startSize=0;swimlaneHead=0;swimlaneBody=0;top=0;left=0;bottom=0;right=0;collapsible=0;dropTarget=0;fillColor=none;points=[[0,0.5],[1,0.5]];portConstraint=eastwest;fontSize=12;" vertex="1" parent="EF0tD5zJlTwU-LwpF9rW-127">
          <mxGeometry y="185" width="340" height="45" as="geometry" />
        </mxCell>
        <mxCell id="EF0tD5zJlTwU-LwpF9rW-149" value="5" style="shape=partialRectangle;html=1;whiteSpace=wrap;connectable=0;fillColor=none;top=0;left=0;bottom=0;right=0;overflow=hidden;fontSize=12;" vertex="1" parent="EF0tD5zJlTwU-LwpF9rW-148">
          <mxGeometry width="49" height="45" as="geometry">
            <mxRectangle width="49" height="45" as="alternateBounds" />
          </mxGeometry>
        </mxCell>
        <mxCell id="EF0tD5zJlTwU-LwpF9rW-150" value="GLOBAL LABELS" style="shape=partialRectangle;html=1;whiteSpace=wrap;connectable=0;fillColor=none;top=0;left=0;bottom=0;right=0;align=left;spacingLeft=6;overflow=hidden;fontSize=12;" vertex="1" parent="EF0tD5zJlTwU-LwpF9rW-148">
          <mxGeometry x="49" width="170" height="45" as="geometry">
            <mxRectangle width="170" height="45" as="alternateBounds" />
          </mxGeometry>
        </mxCell>
        <mxCell id="EF0tD5zJlTwU-LwpF9rW-151" value="MAP" style="shape=partialRectangle;html=1;whiteSpace=wrap;connectable=0;fillColor=none;top=0;left=0;bottom=0;right=0;align=left;spacingLeft=6;overflow=hidden;fontSize=12;" vertex="1" parent="EF0tD5zJlTwU-LwpF9rW-148">
          <mxGeometry x="219" width="121" height="45" as="geometry">
            <mxRectangle width="121" height="45" as="alternateBounds" />
          </mxGeometry>
        </mxCell>
        <mxCell id="EF0tD5zJlTwU-LwpF9rW-152" style="shape=tableRow;horizontal=0;startSize=0;swimlaneHead=0;swimlaneBody=0;top=0;left=0;bottom=0;right=0;collapsible=0;dropTarget=0;fillColor=none;points=[[0,0.5],[1,0.5]];portConstraint=eastwest;fontSize=12;" vertex="1" parent="EF0tD5zJlTwU-LwpF9rW-127">
          <mxGeometry y="230" width="340" height="30" as="geometry" />
        </mxCell>
        <mxCell id="EF0tD5zJlTwU-LwpF9rW-153" value="6" style="shape=partialRectangle;html=1;whiteSpace=wrap;connectable=0;fillColor=none;top=0;left=0;bottom=0;right=0;overflow=hidden;fontSize=12;" vertex="1" parent="EF0tD5zJlTwU-LwpF9rW-152">
          <mxGeometry width="49" height="30" as="geometry">
            <mxRectangle width="49" height="30" as="alternateBounds" />
          </mxGeometry>
        </mxCell>
        <mxCell id="EF0tD5zJlTwU-LwpF9rW-154" value="LASTDATE" style="shape=partialRectangle;html=1;whiteSpace=wrap;connectable=0;fillColor=none;top=0;left=0;bottom=0;right=0;align=left;spacingLeft=6;overflow=hidden;fontSize=12;" vertex="1" parent="EF0tD5zJlTwU-LwpF9rW-152">
          <mxGeometry x="49" width="170" height="30" as="geometry">
            <mxRectangle width="170" height="30" as="alternateBounds" />
          </mxGeometry>
        </mxCell>
        <mxCell id="EF0tD5zJlTwU-LwpF9rW-155" value="STRING" style="shape=partialRectangle;html=1;whiteSpace=wrap;connectable=0;fillColor=none;top=0;left=0;bottom=0;right=0;align=left;spacingLeft=6;overflow=hidden;fontSize=12;" vertex="1" parent="EF0tD5zJlTwU-LwpF9rW-152">
          <mxGeometry x="219" width="121" height="30" as="geometry">
            <mxRectangle width="121" height="30" as="alternateBounds" />
          </mxGeometry>
        </mxCell>
        <mxCell id="EF0tD5zJlTwU-LwpF9rW-156" style="shape=tableRow;horizontal=0;startSize=0;swimlaneHead=0;swimlaneBody=0;top=0;left=0;bottom=0;right=0;collapsible=0;dropTarget=0;fillColor=none;points=[[0,0.5],[1,0.5]];portConstraint=eastwest;fontSize=12;" vertex="1" parent="EF0tD5zJlTwU-LwpF9rW-127">
          <mxGeometry y="260" width="340" height="30" as="geometry" />
        </mxCell>
        <mxCell id="EF0tD5zJlTwU-LwpF9rW-157" value="7" style="shape=partialRectangle;html=1;whiteSpace=wrap;connectable=0;fillColor=none;top=0;left=0;bottom=0;right=0;overflow=hidden;fontSize=12;" vertex="1" parent="EF0tD5zJlTwU-LwpF9rW-156">
          <mxGeometry width="49" height="30" as="geometry">
            <mxRectangle width="49" height="30" as="alternateBounds" />
          </mxGeometry>
        </mxCell>
        <mxCell id="EF0tD5zJlTwU-LwpF9rW-158" value="STREAM" style="shape=partialRectangle;html=1;whiteSpace=wrap;connectable=0;fillColor=none;top=0;left=0;bottom=0;right=0;align=left;spacingLeft=6;overflow=hidden;fontSize=12;" vertex="1" parent="EF0tD5zJlTwU-LwpF9rW-156">
          <mxGeometry x="49" width="170" height="30" as="geometry">
            <mxRectangle width="170" height="30" as="alternateBounds" />
          </mxGeometry>
        </mxCell>
        <mxCell id="EF0tD5zJlTwU-LwpF9rW-159" value="STRING" style="shape=partialRectangle;html=1;whiteSpace=wrap;connectable=0;fillColor=none;top=0;left=0;bottom=0;right=0;align=left;spacingLeft=6;overflow=hidden;fontSize=12;" vertex="1" parent="EF0tD5zJlTwU-LwpF9rW-156">
          <mxGeometry x="219" width="121" height="30" as="geometry">
            <mxRectangle width="121" height="30" as="alternateBounds" />
          </mxGeometry>
        </mxCell>
        <mxCell id="EF0tD5zJlTwU-LwpF9rW-160" style="shape=tableRow;horizontal=0;startSize=0;swimlaneHead=0;swimlaneBody=0;top=0;left=0;bottom=0;right=0;collapsible=0;dropTarget=0;fillColor=none;points=[[0,0.5],[1,0.5]];portConstraint=eastwest;fontSize=12;" vertex="1" parent="EF0tD5zJlTwU-LwpF9rW-127">
          <mxGeometry y="290" width="340" height="30" as="geometry" />
        </mxCell>
        <mxCell id="EF0tD5zJlTwU-LwpF9rW-161" value="8" style="shape=partialRectangle;html=1;whiteSpace=wrap;connectable=0;fillColor=none;top=0;left=0;bottom=0;right=0;overflow=hidden;fontSize=12;" vertex="1" parent="EF0tD5zJlTwU-LwpF9rW-160">
          <mxGeometry width="49" height="30" as="geometry">
            <mxRectangle width="49" height="30" as="alternateBounds" />
          </mxGeometry>
        </mxCell>
        <mxCell id="EF0tD5zJlTwU-LwpF9rW-162" value="DUE DATE" style="shape=partialRectangle;html=1;whiteSpace=wrap;connectable=0;fillColor=none;top=0;left=0;bottom=0;right=0;align=left;spacingLeft=6;overflow=hidden;fontSize=12;" vertex="1" parent="EF0tD5zJlTwU-LwpF9rW-160">
          <mxGeometry x="49" width="170" height="30" as="geometry">
            <mxRectangle width="170" height="30" as="alternateBounds" />
          </mxGeometry>
        </mxCell>
        <mxCell id="EF0tD5zJlTwU-LwpF9rW-163" value="STRING" style="shape=partialRectangle;html=1;whiteSpace=wrap;connectable=0;fillColor=none;top=0;left=0;bottom=0;right=0;align=left;spacingLeft=6;overflow=hidden;fontSize=12;" vertex="1" parent="EF0tD5zJlTwU-LwpF9rW-160">
          <mxGeometry x="219" width="121" height="30" as="geometry">
            <mxRectangle width="121" height="30" as="alternateBounds" />
          </mxGeometry>
        </mxCell>
        <mxCell id="EF0tD5zJlTwU-LwpF9rW-168" style="shape=tableRow;horizontal=0;startSize=0;swimlaneHead=0;swimlaneBody=0;top=0;left=0;bottom=0;right=0;collapsible=0;dropTarget=0;fillColor=none;points=[[0,0.5],[1,0.5]];portConstraint=eastwest;fontSize=12;" vertex="1" parent="EF0tD5zJlTwU-LwpF9rW-127">
          <mxGeometry y="320" width="340" height="29" as="geometry" />
        </mxCell>
        <mxCell id="EF0tD5zJlTwU-LwpF9rW-169" value="10" style="shape=partialRectangle;html=1;whiteSpace=wrap;connectable=0;fillColor=none;top=0;left=0;bottom=0;right=0;overflow=hidden;fontSize=12;" vertex="1" parent="EF0tD5zJlTwU-LwpF9rW-168">
          <mxGeometry width="49" height="29" as="geometry">
            <mxRectangle width="49" height="29" as="alternateBounds" />
          </mxGeometry>
        </mxCell>
        <mxCell id="EF0tD5zJlTwU-LwpF9rW-170" value="TITLE" style="shape=partialRectangle;html=1;whiteSpace=wrap;connectable=0;fillColor=none;top=0;left=0;bottom=0;right=0;align=left;spacingLeft=6;overflow=hidden;fontSize=12;" vertex="1" parent="EF0tD5zJlTwU-LwpF9rW-168">
          <mxGeometry x="49" width="170" height="29" as="geometry">
            <mxRectangle width="170" height="29" as="alternateBounds" />
          </mxGeometry>
        </mxCell>
        <mxCell id="EF0tD5zJlTwU-LwpF9rW-171" value="STRING" style="shape=partialRectangle;html=1;whiteSpace=wrap;connectable=0;fillColor=none;top=0;left=0;bottom=0;right=0;align=left;spacingLeft=6;overflow=hidden;fontSize=12;" vertex="1" parent="EF0tD5zJlTwU-LwpF9rW-168">
          <mxGeometry x="219" width="121" height="29" as="geometry">
            <mxRectangle width="121" height="29" as="alternateBounds" />
          </mxGeometry>
        </mxCell>
        <mxCell id="EF0tD5zJlTwU-LwpF9rW-180" value="QUERIES" style="shape=table;startSize=30;container=1;collapsible=0;childLayout=tableLayout;fixedRows=1;rowLines=0;fontStyle=1;fontSize=12;fillColor=#FFFFFF;" vertex="1" parent="1">
          <mxGeometry x="1830" y="52.5" width="320" height="315" as="geometry" />
        </mxCell>
        <mxCell id="EF0tD5zJlTwU-LwpF9rW-218" style="shape=tableRow;horizontal=0;startSize=0;swimlaneHead=0;swimlaneBody=0;top=0;left=0;bottom=0;right=0;collapsible=0;dropTarget=0;fillColor=none;points=[[0,0.5],[1,0.5]];portConstraint=eastwest;fontSize=12;" vertex="1" parent="EF0tD5zJlTwU-LwpF9rW-180">
          <mxGeometry y="30" width="320" height="35" as="geometry" />
        </mxCell>
        <mxCell id="EF0tD5zJlTwU-LwpF9rW-219" value="NO." style="shape=partialRectangle;html=1;whiteSpace=wrap;connectable=0;fillColor=#FFFFFF;top=0;left=0;bottom=0;right=0;overflow=hidden;pointerEvents=1;fontSize=12;align=center;" vertex="1" parent="EF0tD5zJlTwU-LwpF9rW-218">
          <mxGeometry width="40" height="35" as="geometry">
            <mxRectangle width="40" height="35" as="alternateBounds" />
          </mxGeometry>
        </mxCell>
        <mxCell id="EF0tD5zJlTwU-LwpF9rW-220" value="FIELDS" style="shape=partialRectangle;html=1;whiteSpace=wrap;connectable=0;fillColor=#FFFFFF;top=0;left=0;bottom=0;right=0;align=center;spacingLeft=6;overflow=hidden;fontSize=12;" vertex="1" parent="EF0tD5zJlTwU-LwpF9rW-218">
          <mxGeometry x="40" width="140" height="35" as="geometry">
            <mxRectangle width="140" height="35" as="alternateBounds" />
          </mxGeometry>
        </mxCell>
        <mxCell id="EF0tD5zJlTwU-LwpF9rW-221" value="TYPE" style="shape=partialRectangle;html=1;whiteSpace=wrap;connectable=0;fillColor=#FFFFFF;top=0;left=0;bottom=0;right=0;align=center;spacingLeft=6;overflow=hidden;fontSize=12;" vertex="1" parent="EF0tD5zJlTwU-LwpF9rW-218">
          <mxGeometry x="180" width="140" height="35" as="geometry">
            <mxRectangle width="140" height="35" as="alternateBounds" />
          </mxGeometry>
        </mxCell>
        <mxCell id="EF0tD5zJlTwU-LwpF9rW-181" value="" style="shape=tableRow;horizontal=0;startSize=0;swimlaneHead=0;swimlaneBody=0;top=0;left=0;bottom=0;right=0;collapsible=0;dropTarget=0;fillColor=none;points=[[0,0.5],[1,0.5]];portConstraint=eastwest;fontSize=12;" vertex="1" parent="EF0tD5zJlTwU-LwpF9rW-180">
          <mxGeometry y="65" width="320" height="35" as="geometry" />
        </mxCell>
        <mxCell id="EF0tD5zJlTwU-LwpF9rW-182" value="1" style="shape=partialRectangle;html=1;whiteSpace=wrap;connectable=0;fillColor=none;top=0;left=0;bottom=0;right=0;overflow=hidden;pointerEvents=1;fontSize=12;" vertex="1" parent="EF0tD5zJlTwU-LwpF9rW-181">
          <mxGeometry width="40" height="35" as="geometry">
            <mxRectangle width="40" height="35" as="alternateBounds" />
          </mxGeometry>
        </mxCell>
        <mxCell id="EF0tD5zJlTwU-LwpF9rW-183" value="QUERYDATE" style="shape=partialRectangle;html=1;whiteSpace=wrap;connectable=0;fillColor=none;top=0;left=0;bottom=0;right=0;align=left;spacingLeft=6;overflow=hidden;fontSize=12;" vertex="1" parent="EF0tD5zJlTwU-LwpF9rW-181">
          <mxGeometry x="40" width="140" height="35" as="geometry">
            <mxRectangle width="140" height="35" as="alternateBounds" />
          </mxGeometry>
        </mxCell>
        <mxCell id="EF0tD5zJlTwU-LwpF9rW-190" value="STRING" style="shape=partialRectangle;html=1;whiteSpace=wrap;connectable=0;fillColor=none;top=0;left=0;bottom=0;right=0;align=left;spacingLeft=6;overflow=hidden;fontSize=12;" vertex="1" parent="EF0tD5zJlTwU-LwpF9rW-181">
          <mxGeometry x="180" width="140" height="35" as="geometry">
            <mxRectangle width="140" height="35" as="alternateBounds" />
          </mxGeometry>
        </mxCell>
        <mxCell id="EF0tD5zJlTwU-LwpF9rW-184" value="" style="shape=tableRow;horizontal=0;startSize=0;swimlaneHead=0;swimlaneBody=0;top=0;left=0;bottom=0;right=0;collapsible=0;dropTarget=0;fillColor=none;points=[[0,0.5],[1,0.5]];portConstraint=eastwest;fontSize=12;" vertex="1" parent="EF0tD5zJlTwU-LwpF9rW-180">
          <mxGeometry y="100" width="320" height="30" as="geometry" />
        </mxCell>
        <mxCell id="EF0tD5zJlTwU-LwpF9rW-185" value="2" style="shape=partialRectangle;html=1;whiteSpace=wrap;connectable=0;fillColor=none;top=0;left=0;bottom=0;right=0;overflow=hidden;fontSize=12;" vertex="1" parent="EF0tD5zJlTwU-LwpF9rW-184">
          <mxGeometry width="40" height="30" as="geometry">
            <mxRectangle width="40" height="30" as="alternateBounds" />
          </mxGeometry>
        </mxCell>
        <mxCell id="EF0tD5zJlTwU-LwpF9rW-186" value="QUERYSTATUS" style="shape=partialRectangle;html=1;whiteSpace=wrap;connectable=0;fillColor=none;top=0;left=0;bottom=0;right=0;align=left;spacingLeft=6;overflow=hidden;fontSize=12;" vertex="1" parent="EF0tD5zJlTwU-LwpF9rW-184">
          <mxGeometry x="40" width="140" height="30" as="geometry">
            <mxRectangle width="140" height="30" as="alternateBounds" />
          </mxGeometry>
        </mxCell>
        <mxCell id="EF0tD5zJlTwU-LwpF9rW-191" value="MAP" style="shape=partialRectangle;html=1;whiteSpace=wrap;connectable=0;fillColor=none;top=0;left=0;bottom=0;right=0;align=left;spacingLeft=6;overflow=hidden;fontSize=12;" vertex="1" parent="EF0tD5zJlTwU-LwpF9rW-184">
          <mxGeometry x="180" width="140" height="30" as="geometry">
            <mxRectangle width="140" height="30" as="alternateBounds" />
          </mxGeometry>
        </mxCell>
        <mxCell id="EF0tD5zJlTwU-LwpF9rW-187" value="" style="shape=tableRow;horizontal=0;startSize=0;swimlaneHead=0;swimlaneBody=0;top=0;left=0;bottom=0;right=0;collapsible=0;dropTarget=0;fillColor=none;points=[[0,0.5],[1,0.5]];portConstraint=eastwest;fontSize=12;" vertex="1" parent="EF0tD5zJlTwU-LwpF9rW-180">
          <mxGeometry y="130" width="320" height="35" as="geometry" />
        </mxCell>
        <mxCell id="EF0tD5zJlTwU-LwpF9rW-188" value="3" style="shape=partialRectangle;html=1;whiteSpace=wrap;connectable=0;fillColor=none;top=0;left=0;bottom=0;right=0;overflow=hidden;fontSize=12;" vertex="1" parent="EF0tD5zJlTwU-LwpF9rW-187">
          <mxGeometry width="40" height="35" as="geometry">
            <mxRectangle width="40" height="35" as="alternateBounds" />
          </mxGeometry>
        </mxCell>
        <mxCell id="EF0tD5zJlTwU-LwpF9rW-189" value="SUBJECT" style="shape=partialRectangle;html=1;whiteSpace=wrap;connectable=0;fillColor=none;top=0;left=0;bottom=0;right=0;align=left;spacingLeft=6;overflow=hidden;fontSize=12;" vertex="1" parent="EF0tD5zJlTwU-LwpF9rW-187">
          <mxGeometry x="40" width="140" height="35" as="geometry">
            <mxRectangle width="140" height="35" as="alternateBounds" />
          </mxGeometry>
        </mxCell>
        <mxCell id="EF0tD5zJlTwU-LwpF9rW-192" value="STRING" style="shape=partialRectangle;html=1;whiteSpace=wrap;connectable=0;fillColor=none;top=0;left=0;bottom=0;right=0;align=left;spacingLeft=6;overflow=hidden;fontSize=12;" vertex="1" parent="EF0tD5zJlTwU-LwpF9rW-187">
          <mxGeometry x="180" width="140" height="35" as="geometry">
            <mxRectangle width="140" height="35" as="alternateBounds" />
          </mxGeometry>
        </mxCell>
        <mxCell id="EF0tD5zJlTwU-LwpF9rW-206" style="shape=tableRow;horizontal=0;startSize=0;swimlaneHead=0;swimlaneBody=0;top=0;left=0;bottom=0;right=0;collapsible=0;dropTarget=0;fillColor=none;points=[[0,0.5],[1,0.5]];portConstraint=eastwest;fontSize=12;" vertex="1" parent="EF0tD5zJlTwU-LwpF9rW-180">
          <mxGeometry y="165" width="320" height="30" as="geometry" />
        </mxCell>
        <mxCell id="EF0tD5zJlTwU-LwpF9rW-207" value="4" style="shape=partialRectangle;html=1;whiteSpace=wrap;connectable=0;fillColor=none;top=0;left=0;bottom=0;right=0;overflow=hidden;fontSize=12;" vertex="1" parent="EF0tD5zJlTwU-LwpF9rW-206">
          <mxGeometry width="40" height="30" as="geometry">
            <mxRectangle width="40" height="30" as="alternateBounds" />
          </mxGeometry>
        </mxCell>
        <mxCell id="EF0tD5zJlTwU-LwpF9rW-208" value="REPLY" style="shape=partialRectangle;html=1;whiteSpace=wrap;connectable=0;fillColor=none;top=0;left=0;bottom=0;right=0;align=left;spacingLeft=6;overflow=hidden;fontSize=12;" vertex="1" parent="EF0tD5zJlTwU-LwpF9rW-206">
          <mxGeometry x="40" width="140" height="30" as="geometry">
            <mxRectangle width="140" height="30" as="alternateBounds" />
          </mxGeometry>
        </mxCell>
        <mxCell id="EF0tD5zJlTwU-LwpF9rW-209" value="STRING" style="shape=partialRectangle;html=1;whiteSpace=wrap;connectable=0;fillColor=none;top=0;left=0;bottom=0;right=0;align=left;spacingLeft=6;overflow=hidden;fontSize=12;" vertex="1" parent="EF0tD5zJlTwU-LwpF9rW-206">
          <mxGeometry x="180" width="140" height="30" as="geometry">
            <mxRectangle width="140" height="30" as="alternateBounds" />
          </mxGeometry>
        </mxCell>
        <mxCell id="EF0tD5zJlTwU-LwpF9rW-202" style="shape=tableRow;horizontal=0;startSize=0;swimlaneHead=0;swimlaneBody=0;top=0;left=0;bottom=0;right=0;collapsible=0;dropTarget=0;fillColor=none;points=[[0,0.5],[1,0.5]];portConstraint=eastwest;fontSize=12;" vertex="1" parent="EF0tD5zJlTwU-LwpF9rW-180">
          <mxGeometry y="195" width="320" height="30" as="geometry" />
        </mxCell>
        <mxCell id="EF0tD5zJlTwU-LwpF9rW-203" value="5" style="shape=partialRectangle;html=1;whiteSpace=wrap;connectable=0;fillColor=none;top=0;left=0;bottom=0;right=0;overflow=hidden;fontSize=12;" vertex="1" parent="EF0tD5zJlTwU-LwpF9rW-202">
          <mxGeometry width="40" height="30" as="geometry">
            <mxRectangle width="40" height="30" as="alternateBounds" />
          </mxGeometry>
        </mxCell>
        <mxCell id="EF0tD5zJlTwU-LwpF9rW-204" value="ASSIGNEE" style="shape=partialRectangle;html=1;whiteSpace=wrap;connectable=0;fillColor=none;top=0;left=0;bottom=0;right=0;align=left;spacingLeft=6;overflow=hidden;fontSize=12;" vertex="1" parent="EF0tD5zJlTwU-LwpF9rW-202">
          <mxGeometry x="40" width="140" height="30" as="geometry">
            <mxRectangle width="140" height="30" as="alternateBounds" />
          </mxGeometry>
        </mxCell>
        <mxCell id="EF0tD5zJlTwU-LwpF9rW-205" value="STRING" style="shape=partialRectangle;html=1;whiteSpace=wrap;connectable=0;fillColor=none;top=0;left=0;bottom=0;right=0;align=left;spacingLeft=6;overflow=hidden;fontSize=12;" vertex="1" parent="EF0tD5zJlTwU-LwpF9rW-202">
          <mxGeometry x="180" width="140" height="30" as="geometry">
            <mxRectangle width="140" height="30" as="alternateBounds" />
          </mxGeometry>
        </mxCell>
        <mxCell id="EF0tD5zJlTwU-LwpF9rW-198" style="shape=tableRow;horizontal=0;startSize=0;swimlaneHead=0;swimlaneBody=0;top=0;left=0;bottom=0;right=0;collapsible=0;dropTarget=0;fillColor=none;points=[[0,0.5],[1,0.5]];portConstraint=eastwest;fontSize=12;" vertex="1" parent="EF0tD5zJlTwU-LwpF9rW-180">
          <mxGeometry y="225" width="320" height="30" as="geometry" />
        </mxCell>
        <mxCell id="EF0tD5zJlTwU-LwpF9rW-199" value="6" style="shape=partialRectangle;html=1;whiteSpace=wrap;connectable=0;fillColor=none;top=0;left=0;bottom=0;right=0;overflow=hidden;fontSize=12;" vertex="1" parent="EF0tD5zJlTwU-LwpF9rW-198">
          <mxGeometry width="40" height="30" as="geometry">
            <mxRectangle width="40" height="30" as="alternateBounds" />
          </mxGeometry>
        </mxCell>
        <mxCell id="EF0tD5zJlTwU-LwpF9rW-200" value="QUERYTIMESTAMP" style="shape=partialRectangle;html=1;whiteSpace=wrap;connectable=0;fillColor=none;top=0;left=0;bottom=0;right=0;align=left;spacingLeft=6;overflow=hidden;fontSize=12;" vertex="1" parent="EF0tD5zJlTwU-LwpF9rW-198">
          <mxGeometry x="40" width="140" height="30" as="geometry">
            <mxRectangle width="140" height="30" as="alternateBounds" />
          </mxGeometry>
        </mxCell>
        <mxCell id="EF0tD5zJlTwU-LwpF9rW-201" value="NUMBER" style="shape=partialRectangle;html=1;whiteSpace=wrap;connectable=0;fillColor=none;top=0;left=0;bottom=0;right=0;align=left;spacingLeft=6;overflow=hidden;fontSize=12;" vertex="1" parent="EF0tD5zJlTwU-LwpF9rW-198">
          <mxGeometry x="180" width="140" height="30" as="geometry">
            <mxRectangle width="140" height="30" as="alternateBounds" />
          </mxGeometry>
        </mxCell>
        <mxCell id="EF0tD5zJlTwU-LwpF9rW-210" style="shape=tableRow;horizontal=0;startSize=0;swimlaneHead=0;swimlaneBody=0;top=0;left=0;bottom=0;right=0;collapsible=0;dropTarget=0;fillColor=none;points=[[0,0.5],[1,0.5]];portConstraint=eastwest;fontSize=12;" vertex="1" parent="EF0tD5zJlTwU-LwpF9rW-180">
          <mxGeometry y="255" width="320" height="30" as="geometry" />
        </mxCell>
        <mxCell id="EF0tD5zJlTwU-LwpF9rW-211" value="7" style="shape=partialRectangle;html=1;whiteSpace=wrap;connectable=0;fillColor=none;top=0;left=0;bottom=0;right=0;overflow=hidden;fontSize=12;" vertex="1" parent="EF0tD5zJlTwU-LwpF9rW-210">
          <mxGeometry width="40" height="30" as="geometry">
            <mxRectangle width="40" height="30" as="alternateBounds" />
          </mxGeometry>
        </mxCell>
        <mxCell id="EF0tD5zJlTwU-LwpF9rW-212" value="QUERYDESC" style="shape=partialRectangle;html=1;whiteSpace=wrap;connectable=0;fillColor=none;top=0;left=0;bottom=0;right=0;align=left;spacingLeft=6;overflow=hidden;fontSize=12;" vertex="1" parent="EF0tD5zJlTwU-LwpF9rW-210">
          <mxGeometry x="40" width="140" height="30" as="geometry">
            <mxRectangle width="140" height="30" as="alternateBounds" />
          </mxGeometry>
        </mxCell>
        <mxCell id="EF0tD5zJlTwU-LwpF9rW-213" value="STRING" style="shape=partialRectangle;html=1;whiteSpace=wrap;connectable=0;fillColor=none;top=0;left=0;bottom=0;right=0;align=left;spacingLeft=6;overflow=hidden;fontSize=12;" vertex="1" parent="EF0tD5zJlTwU-LwpF9rW-210">
          <mxGeometry x="180" width="140" height="30" as="geometry">
            <mxRectangle width="140" height="30" as="alternateBounds" />
          </mxGeometry>
        </mxCell>
        <mxCell id="EF0tD5zJlTwU-LwpF9rW-214" style="shape=tableRow;horizontal=0;startSize=0;swimlaneHead=0;swimlaneBody=0;top=0;left=0;bottom=0;right=0;collapsible=0;dropTarget=0;fillColor=none;points=[[0,0.5],[1,0.5]];portConstraint=eastwest;fontSize=12;" vertex="1" parent="EF0tD5zJlTwU-LwpF9rW-180">
          <mxGeometry y="285" width="320" height="30" as="geometry" />
        </mxCell>
        <mxCell id="EF0tD5zJlTwU-LwpF9rW-215" style="shape=partialRectangle;html=1;whiteSpace=wrap;connectable=0;fillColor=none;top=0;left=0;bottom=0;right=0;overflow=hidden;fontSize=12;" vertex="1" parent="EF0tD5zJlTwU-LwpF9rW-214">
          <mxGeometry width="40" height="30" as="geometry">
            <mxRectangle width="40" height="30" as="alternateBounds" />
          </mxGeometry>
        </mxCell>
        <mxCell id="EF0tD5zJlTwU-LwpF9rW-216" value="QUERYID" style="shape=partialRectangle;html=1;whiteSpace=wrap;connectable=0;fillColor=none;top=0;left=0;bottom=0;right=0;align=left;spacingLeft=6;overflow=hidden;fontSize=12;" vertex="1" parent="EF0tD5zJlTwU-LwpF9rW-214">
          <mxGeometry x="40" width="140" height="30" as="geometry">
            <mxRectangle width="140" height="30" as="alternateBounds" />
          </mxGeometry>
        </mxCell>
        <mxCell id="EF0tD5zJlTwU-LwpF9rW-217" value="NUMBER" style="shape=partialRectangle;html=1;whiteSpace=wrap;connectable=0;fillColor=none;top=0;left=0;bottom=0;right=0;align=left;spacingLeft=6;overflow=hidden;fontSize=12;" vertex="1" parent="EF0tD5zJlTwU-LwpF9rW-214">
          <mxGeometry x="180" width="140" height="30" as="geometry">
            <mxRectangle width="140" height="30" as="alternateBounds" />
          </mxGeometry>
        </mxCell>
        <mxCell id="EF0tD5zJlTwU-LwpF9rW-223" style="edgeStyle=orthogonalEdgeStyle;curved=1;rounded=0;orthogonalLoop=1;jettySize=auto;html=1;exitX=1;exitY=0.5;exitDx=0;exitDy=0;fontSize=12;entryX=0;entryY=0.5;entryDx=0;entryDy=0;" edge="1" parent="1" source="EF0tD5zJlTwU-LwpF9rW-45" target="EF0tD5zJlTwU-LwpF9rW-187">
          <mxGeometry relative="1" as="geometry">
            <mxPoint x="1799.9999999999998" y="388.5" as="targetPoint" />
          </mxGeometry>
        </mxCell>
        <mxCell id="myHnWQqyZAs5CYo62tjq-1" value="GLOBAL LABELS" style="shape=table;startSize=30;container=1;collapsible=0;childLayout=tableLayout;fixedRows=1;rowLines=0;fontStyle=1;fontSize=12;" vertex="1" parent="1">
          <mxGeometry x="1870" y="950" width="340" height="349" as="geometry" />
        </mxCell>
        <mxCell id="myHnWQqyZAs5CYo62tjq-2" style="shape=tableRow;horizontal=0;startSize=0;swimlaneHead=0;swimlaneBody=0;top=0;left=0;bottom=0;right=0;collapsible=0;dropTarget=0;fillColor=none;points=[[0,0.5],[1,0.5]];portConstraint=eastwest;fontSize=12;" vertex="1" parent="myHnWQqyZAs5CYo62tjq-1">
          <mxGeometry y="30" width="340" height="30" as="geometry" />
        </mxCell>
        <mxCell id="myHnWQqyZAs5CYo62tjq-3" value="NO." style="shape=partialRectangle;html=1;whiteSpace=wrap;connectable=0;fillColor=none;top=0;left=0;bottom=0;right=0;overflow=hidden;pointerEvents=1;fontSize=12;align=center;" vertex="1" parent="myHnWQqyZAs5CYo62tjq-2">
          <mxGeometry width="49" height="30" as="geometry">
            <mxRectangle width="49" height="30" as="alternateBounds" />
          </mxGeometry>
        </mxCell>
        <mxCell id="myHnWQqyZAs5CYo62tjq-4" value="KEYS" style="shape=partialRectangle;html=1;whiteSpace=wrap;connectable=0;fillColor=none;top=0;left=0;bottom=0;right=0;align=center;spacingLeft=6;overflow=hidden;fontSize=12;" vertex="1" parent="myHnWQqyZAs5CYo62tjq-2">
          <mxGeometry x="49" width="170" height="30" as="geometry">
            <mxRectangle width="170" height="30" as="alternateBounds" />
          </mxGeometry>
        </mxCell>
        <mxCell id="myHnWQqyZAs5CYo62tjq-5" value="TYPE" style="shape=partialRectangle;html=1;whiteSpace=wrap;connectable=0;fillColor=none;top=0;left=0;bottom=0;right=0;align=center;spacingLeft=6;overflow=hidden;fontSize=12;" vertex="1" parent="myHnWQqyZAs5CYo62tjq-2">
          <mxGeometry x="219" width="121" height="30" as="geometry">
            <mxRectangle width="121" height="30" as="alternateBounds" />
          </mxGeometry>
        </mxCell>
        <mxCell id="myHnWQqyZAs5CYo62tjq-6" value="" style="shape=tableRow;horizontal=0;startSize=0;swimlaneHead=0;swimlaneBody=0;top=0;left=0;bottom=0;right=0;collapsible=0;dropTarget=0;fillColor=none;points=[[0,0.5],[1,0.5]];portConstraint=eastwest;fontSize=12;" vertex="1" parent="myHnWQqyZAs5CYo62tjq-1">
          <mxGeometry y="60" width="340" height="30" as="geometry" />
        </mxCell>
        <mxCell id="myHnWQqyZAs5CYo62tjq-7" value="1" style="shape=partialRectangle;html=1;whiteSpace=wrap;connectable=0;fillColor=none;top=0;left=0;bottom=0;right=0;overflow=hidden;pointerEvents=1;fontSize=12;" vertex="1" parent="myHnWQqyZAs5CYo62tjq-6">
          <mxGeometry width="49" height="30" as="geometry">
            <mxRectangle width="49" height="30" as="alternateBounds" />
          </mxGeometry>
        </mxCell>
        <mxCell id="myHnWQqyZAs5CYo62tjq-8" value="APPLICATIONID" style="shape=partialRectangle;html=1;whiteSpace=wrap;connectable=0;fillColor=none;top=0;left=0;bottom=0;right=0;align=left;spacingLeft=6;overflow=hidden;fontSize=12;" vertex="1" parent="myHnWQqyZAs5CYo62tjq-6">
          <mxGeometry x="49" width="170" height="30" as="geometry">
            <mxRectangle width="170" height="30" as="alternateBounds" />
          </mxGeometry>
        </mxCell>
        <mxCell id="myHnWQqyZAs5CYo62tjq-9" value="STRING" style="shape=partialRectangle;html=1;whiteSpace=wrap;connectable=0;fillColor=none;top=0;left=0;bottom=0;right=0;align=left;spacingLeft=6;overflow=hidden;fontSize=12;" vertex="1" parent="myHnWQqyZAs5CYo62tjq-6">
          <mxGeometry x="219" width="121" height="30" as="geometry">
            <mxRectangle width="121" height="30" as="alternateBounds" />
          </mxGeometry>
        </mxCell>
        <mxCell id="myHnWQqyZAs5CYo62tjq-10" value="" style="shape=tableRow;horizontal=0;startSize=0;swimlaneHead=0;swimlaneBody=0;top=0;left=0;bottom=0;right=0;collapsible=0;dropTarget=0;fillColor=none;points=[[0,0.5],[1,0.5]];portConstraint=eastwest;fontSize=12;" vertex="1" parent="myHnWQqyZAs5CYo62tjq-1">
          <mxGeometry y="90" width="340" height="30" as="geometry" />
        </mxCell>
        <mxCell id="myHnWQqyZAs5CYo62tjq-11" value="2" style="shape=partialRectangle;html=1;whiteSpace=wrap;connectable=0;fillColor=none;top=0;left=0;bottom=0;right=0;overflow=hidden;fontSize=12;" vertex="1" parent="myHnWQqyZAs5CYo62tjq-10">
          <mxGeometry width="49" height="30" as="geometry">
            <mxRectangle width="49" height="30" as="alternateBounds" />
          </mxGeometry>
        </mxCell>
        <mxCell id="myHnWQqyZAs5CYo62tjq-12" value="BRANCH" style="shape=partialRectangle;html=1;whiteSpace=wrap;connectable=0;fillColor=none;top=0;left=0;bottom=0;right=0;align=left;spacingLeft=6;overflow=hidden;fontSize=12;" vertex="1" parent="myHnWQqyZAs5CYo62tjq-10">
          <mxGeometry x="49" width="170" height="30" as="geometry">
            <mxRectangle width="170" height="30" as="alternateBounds" />
          </mxGeometry>
        </mxCell>
        <mxCell id="myHnWQqyZAs5CYo62tjq-13" value="STRING" style="shape=partialRectangle;html=1;whiteSpace=wrap;connectable=0;fillColor=none;top=0;left=0;bottom=0;right=0;align=left;spacingLeft=6;overflow=hidden;fontSize=12;" vertex="1" parent="myHnWQqyZAs5CYo62tjq-10">
          <mxGeometry x="219" width="121" height="30" as="geometry">
            <mxRectangle width="121" height="30" as="alternateBounds" />
          </mxGeometry>
        </mxCell>
        <mxCell id="myHnWQqyZAs5CYo62tjq-14" value="" style="shape=tableRow;horizontal=0;startSize=0;swimlaneHead=0;swimlaneBody=0;top=0;left=0;bottom=0;right=0;collapsible=0;dropTarget=0;fillColor=none;points=[[0,0.5],[1,0.5]];portConstraint=eastwest;fontSize=12;" vertex="1" parent="myHnWQqyZAs5CYo62tjq-1">
          <mxGeometry y="120" width="340" height="35" as="geometry" />
        </mxCell>
        <mxCell id="myHnWQqyZAs5CYo62tjq-15" value="3" style="shape=partialRectangle;html=1;whiteSpace=wrap;connectable=0;fillColor=none;top=0;left=0;bottom=0;right=0;overflow=hidden;fontSize=12;" vertex="1" parent="myHnWQqyZAs5CYo62tjq-14">
          <mxGeometry width="49" height="35" as="geometry">
            <mxRectangle width="49" height="35" as="alternateBounds" />
          </mxGeometry>
        </mxCell>
        <mxCell id="myHnWQqyZAs5CYo62tjq-16" value="DESCRIPTION" style="shape=partialRectangle;html=1;whiteSpace=wrap;connectable=0;fillColor=none;top=0;left=0;bottom=0;right=0;align=left;spacingLeft=6;overflow=hidden;fontSize=12;" vertex="1" parent="myHnWQqyZAs5CYo62tjq-14">
          <mxGeometry x="49" width="170" height="35" as="geometry">
            <mxRectangle width="170" height="35" as="alternateBounds" />
          </mxGeometry>
        </mxCell>
        <mxCell id="myHnWQqyZAs5CYo62tjq-17" value="STRING" style="shape=partialRectangle;html=1;whiteSpace=wrap;connectable=0;fillColor=none;top=0;left=0;bottom=0;right=0;align=left;spacingLeft=6;overflow=hidden;fontSize=12;" vertex="1" parent="myHnWQqyZAs5CYo62tjq-14">
          <mxGeometry x="219" width="121" height="35" as="geometry">
            <mxRectangle width="121" height="35" as="alternateBounds" />
          </mxGeometry>
        </mxCell>
        <mxCell id="myHnWQqyZAs5CYo62tjq-18" style="shape=tableRow;horizontal=0;startSize=0;swimlaneHead=0;swimlaneBody=0;top=0;left=0;bottom=0;right=0;collapsible=0;dropTarget=0;fillColor=none;points=[[0,0.5],[1,0.5]];portConstraint=eastwest;fontSize=12;" vertex="1" parent="myHnWQqyZAs5CYo62tjq-1">
          <mxGeometry y="155" width="340" height="30" as="geometry" />
        </mxCell>
        <mxCell id="myHnWQqyZAs5CYo62tjq-19" value="4" style="shape=partialRectangle;html=1;whiteSpace=wrap;connectable=0;fillColor=none;top=0;left=0;bottom=0;right=0;overflow=hidden;fontSize=12;" vertex="1" parent="myHnWQqyZAs5CYo62tjq-18">
          <mxGeometry width="49" height="30" as="geometry">
            <mxRectangle width="49" height="30" as="alternateBounds" />
          </mxGeometry>
        </mxCell>
        <mxCell id="myHnWQqyZAs5CYo62tjq-20" value="FEES" style="shape=partialRectangle;html=1;whiteSpace=wrap;connectable=0;fillColor=none;top=0;left=0;bottom=0;right=0;align=left;spacingLeft=6;overflow=hidden;fontSize=12;" vertex="1" parent="myHnWQqyZAs5CYo62tjq-18">
          <mxGeometry x="49" width="170" height="30" as="geometry">
            <mxRectangle width="170" height="30" as="alternateBounds" />
          </mxGeometry>
        </mxCell>
        <mxCell id="myHnWQqyZAs5CYo62tjq-21" value="NUMBER" style="shape=partialRectangle;html=1;whiteSpace=wrap;connectable=0;fillColor=none;top=0;left=0;bottom=0;right=0;align=left;spacingLeft=6;overflow=hidden;fontSize=12;" vertex="1" parent="myHnWQqyZAs5CYo62tjq-18">
          <mxGeometry x="219" width="121" height="30" as="geometry">
            <mxRectangle width="121" height="30" as="alternateBounds" />
          </mxGeometry>
        </mxCell>
        <mxCell id="myHnWQqyZAs5CYo62tjq-22" style="shape=tableRow;horizontal=0;startSize=0;swimlaneHead=0;swimlaneBody=0;top=0;left=0;bottom=0;right=0;collapsible=0;dropTarget=0;fillColor=none;points=[[0,0.5],[1,0.5]];portConstraint=eastwest;fontSize=12;" vertex="1" parent="myHnWQqyZAs5CYo62tjq-1">
          <mxGeometry y="185" width="340" height="45" as="geometry" />
        </mxCell>
        <mxCell id="myHnWQqyZAs5CYo62tjq-23" value="5" style="shape=partialRectangle;html=1;whiteSpace=wrap;connectable=0;fillColor=none;top=0;left=0;bottom=0;right=0;overflow=hidden;fontSize=12;" vertex="1" parent="myHnWQqyZAs5CYo62tjq-22">
          <mxGeometry width="49" height="45" as="geometry">
            <mxRectangle width="49" height="45" as="alternateBounds" />
          </mxGeometry>
        </mxCell>
        <mxCell id="myHnWQqyZAs5CYo62tjq-24" value="GLOBAL LABELS" style="shape=partialRectangle;html=1;whiteSpace=wrap;connectable=0;fillColor=none;top=0;left=0;bottom=0;right=0;align=left;spacingLeft=6;overflow=hidden;fontSize=12;" vertex="1" parent="myHnWQqyZAs5CYo62tjq-22">
          <mxGeometry x="49" width="170" height="45" as="geometry">
            <mxRectangle width="170" height="45" as="alternateBounds" />
          </mxGeometry>
        </mxCell>
        <mxCell id="myHnWQqyZAs5CYo62tjq-25" value="MAP" style="shape=partialRectangle;html=1;whiteSpace=wrap;connectable=0;fillColor=none;top=0;left=0;bottom=0;right=0;align=left;spacingLeft=6;overflow=hidden;fontSize=12;" vertex="1" parent="myHnWQqyZAs5CYo62tjq-22">
          <mxGeometry x="219" width="121" height="45" as="geometry">
            <mxRectangle width="121" height="45" as="alternateBounds" />
          </mxGeometry>
        </mxCell>
        <mxCell id="myHnWQqyZAs5CYo62tjq-26" style="shape=tableRow;horizontal=0;startSize=0;swimlaneHead=0;swimlaneBody=0;top=0;left=0;bottom=0;right=0;collapsible=0;dropTarget=0;fillColor=none;points=[[0,0.5],[1,0.5]];portConstraint=eastwest;fontSize=12;" vertex="1" parent="myHnWQqyZAs5CYo62tjq-1">
          <mxGeometry y="230" width="340" height="30" as="geometry" />
        </mxCell>
        <mxCell id="myHnWQqyZAs5CYo62tjq-27" value="6" style="shape=partialRectangle;html=1;whiteSpace=wrap;connectable=0;fillColor=none;top=0;left=0;bottom=0;right=0;overflow=hidden;fontSize=12;" vertex="1" parent="myHnWQqyZAs5CYo62tjq-26">
          <mxGeometry width="49" height="30" as="geometry">
            <mxRectangle width="49" height="30" as="alternateBounds" />
          </mxGeometry>
        </mxCell>
        <mxCell id="myHnWQqyZAs5CYo62tjq-28" value="LASTDATE" style="shape=partialRectangle;html=1;whiteSpace=wrap;connectable=0;fillColor=none;top=0;left=0;bottom=0;right=0;align=left;spacingLeft=6;overflow=hidden;fontSize=12;" vertex="1" parent="myHnWQqyZAs5CYo62tjq-26">
          <mxGeometry x="49" width="170" height="30" as="geometry">
            <mxRectangle width="170" height="30" as="alternateBounds" />
          </mxGeometry>
        </mxCell>
        <mxCell id="myHnWQqyZAs5CYo62tjq-29" value="STRING" style="shape=partialRectangle;html=1;whiteSpace=wrap;connectable=0;fillColor=none;top=0;left=0;bottom=0;right=0;align=left;spacingLeft=6;overflow=hidden;fontSize=12;" vertex="1" parent="myHnWQqyZAs5CYo62tjq-26">
          <mxGeometry x="219" width="121" height="30" as="geometry">
            <mxRectangle width="121" height="30" as="alternateBounds" />
          </mxGeometry>
        </mxCell>
        <mxCell id="myHnWQqyZAs5CYo62tjq-30" style="shape=tableRow;horizontal=0;startSize=0;swimlaneHead=0;swimlaneBody=0;top=0;left=0;bottom=0;right=0;collapsible=0;dropTarget=0;fillColor=none;points=[[0,0.5],[1,0.5]];portConstraint=eastwest;fontSize=12;" vertex="1" parent="myHnWQqyZAs5CYo62tjq-1">
          <mxGeometry y="260" width="340" height="30" as="geometry" />
        </mxCell>
        <mxCell id="myHnWQqyZAs5CYo62tjq-31" value="7" style="shape=partialRectangle;html=1;whiteSpace=wrap;connectable=0;fillColor=none;top=0;left=0;bottom=0;right=0;overflow=hidden;fontSize=12;" vertex="1" parent="myHnWQqyZAs5CYo62tjq-30">
          <mxGeometry width="49" height="30" as="geometry">
            <mxRectangle width="49" height="30" as="alternateBounds" />
          </mxGeometry>
        </mxCell>
        <mxCell id="myHnWQqyZAs5CYo62tjq-32" value="STREAM" style="shape=partialRectangle;html=1;whiteSpace=wrap;connectable=0;fillColor=none;top=0;left=0;bottom=0;right=0;align=left;spacingLeft=6;overflow=hidden;fontSize=12;" vertex="1" parent="myHnWQqyZAs5CYo62tjq-30">
          <mxGeometry x="49" width="170" height="30" as="geometry">
            <mxRectangle width="170" height="30" as="alternateBounds" />
          </mxGeometry>
        </mxCell>
        <mxCell id="myHnWQqyZAs5CYo62tjq-33" value="STRING" style="shape=partialRectangle;html=1;whiteSpace=wrap;connectable=0;fillColor=none;top=0;left=0;bottom=0;right=0;align=left;spacingLeft=6;overflow=hidden;fontSize=12;" vertex="1" parent="myHnWQqyZAs5CYo62tjq-30">
          <mxGeometry x="219" width="121" height="30" as="geometry">
            <mxRectangle width="121" height="30" as="alternateBounds" />
          </mxGeometry>
        </mxCell>
        <mxCell id="myHnWQqyZAs5CYo62tjq-34" style="shape=tableRow;horizontal=0;startSize=0;swimlaneHead=0;swimlaneBody=0;top=0;left=0;bottom=0;right=0;collapsible=0;dropTarget=0;fillColor=none;points=[[0,0.5],[1,0.5]];portConstraint=eastwest;fontSize=12;" vertex="1" parent="myHnWQqyZAs5CYo62tjq-1">
          <mxGeometry y="290" width="340" height="30" as="geometry" />
        </mxCell>
        <mxCell id="myHnWQqyZAs5CYo62tjq-35" value="8" style="shape=partialRectangle;html=1;whiteSpace=wrap;connectable=0;fillColor=none;top=0;left=0;bottom=0;right=0;overflow=hidden;fontSize=12;" vertex="1" parent="myHnWQqyZAs5CYo62tjq-34">
          <mxGeometry width="49" height="30" as="geometry">
            <mxRectangle width="49" height="30" as="alternateBounds" />
          </mxGeometry>
        </mxCell>
        <mxCell id="myHnWQqyZAs5CYo62tjq-36" value="DUE DATE" style="shape=partialRectangle;html=1;whiteSpace=wrap;connectable=0;fillColor=none;top=0;left=0;bottom=0;right=0;align=left;spacingLeft=6;overflow=hidden;fontSize=12;" vertex="1" parent="myHnWQqyZAs5CYo62tjq-34">
          <mxGeometry x="49" width="170" height="30" as="geometry">
            <mxRectangle width="170" height="30" as="alternateBounds" />
          </mxGeometry>
        </mxCell>
        <mxCell id="myHnWQqyZAs5CYo62tjq-37" value="STRING" style="shape=partialRectangle;html=1;whiteSpace=wrap;connectable=0;fillColor=none;top=0;left=0;bottom=0;right=0;align=left;spacingLeft=6;overflow=hidden;fontSize=12;" vertex="1" parent="myHnWQqyZAs5CYo62tjq-34">
          <mxGeometry x="219" width="121" height="30" as="geometry">
            <mxRectangle width="121" height="30" as="alternateBounds" />
          </mxGeometry>
        </mxCell>
        <mxCell id="myHnWQqyZAs5CYo62tjq-38" style="shape=tableRow;horizontal=0;startSize=0;swimlaneHead=0;swimlaneBody=0;top=0;left=0;bottom=0;right=0;collapsible=0;dropTarget=0;fillColor=none;points=[[0,0.5],[1,0.5]];portConstraint=eastwest;fontSize=12;" vertex="1" parent="myHnWQqyZAs5CYo62tjq-1">
          <mxGeometry y="320" width="340" height="29" as="geometry" />
        </mxCell>
        <mxCell id="myHnWQqyZAs5CYo62tjq-39" value="10" style="shape=partialRectangle;html=1;whiteSpace=wrap;connectable=0;fillColor=none;top=0;left=0;bottom=0;right=0;overflow=hidden;fontSize=12;" vertex="1" parent="myHnWQqyZAs5CYo62tjq-38">
          <mxGeometry width="49" height="29" as="geometry">
            <mxRectangle width="49" height="29" as="alternateBounds" />
          </mxGeometry>
        </mxCell>
        <mxCell id="myHnWQqyZAs5CYo62tjq-40" value="TITLE" style="shape=partialRectangle;html=1;whiteSpace=wrap;connectable=0;fillColor=none;top=0;left=0;bottom=0;right=0;align=left;spacingLeft=6;overflow=hidden;fontSize=12;" vertex="1" parent="myHnWQqyZAs5CYo62tjq-38">
          <mxGeometry x="49" width="170" height="29" as="geometry">
            <mxRectangle width="170" height="29" as="alternateBounds" />
          </mxGeometry>
        </mxCell>
        <mxCell id="myHnWQqyZAs5CYo62tjq-41" value="STRING" style="shape=partialRectangle;html=1;whiteSpace=wrap;connectable=0;fillColor=none;top=0;left=0;bottom=0;right=0;align=left;spacingLeft=6;overflow=hidden;fontSize=12;" vertex="1" parent="myHnWQqyZAs5CYo62tjq-38">
          <mxGeometry x="219" width="121" height="29" as="geometry">
            <mxRectangle width="121" height="29" as="alternateBounds" />
          </mxGeometry>
        </mxCell>
        <mxCell id="yTwSWckdho64-H-ZR-6q-4" style="edgeStyle=orthogonalEdgeStyle;curved=1;rounded=0;orthogonalLoop=1;jettySize=auto;html=1;exitX=1.001;exitY=0.698;exitDx=0;exitDy=0;entryX=0.024;entryY=-0.205;entryDx=0;entryDy=0;entryPerimeter=0;fontSize=12;exitPerimeter=0;" edge="1" parent="1" source="yTwSWckdho64-H-ZR-6q-3" target="EF0tD5zJlTwU-LwpF9rW-27">
          <mxGeometry relative="1" as="geometry" />
        </mxCell>
        <mxCell id="yTwSWckdho64-H-ZR-6q-5" style="edgeStyle=orthogonalEdgeStyle;curved=1;rounded=0;orthogonalLoop=1;jettySize=auto;html=1;exitX=1;exitY=0.75;exitDx=0;exitDy=0;entryX=0;entryY=0.5;entryDx=0;entryDy=0;fontSize=12;exitPerimeter=0;" edge="1" parent="1" source="yTwSWckdho64-H-ZR-6q-3" target="EF0tD5zJlTwU-LwpF9rW-61">
          <mxGeometry relative="1" as="geometry" />
        </mxCell>
        <mxCell id="yTwSWckdho64-H-ZR-6q-6" style="edgeStyle=orthogonalEdgeStyle;curved=1;rounded=0;orthogonalLoop=1;jettySize=auto;html=1;exitX=1;exitY=0.75;exitDx=0;exitDy=0;entryX=-0.034;entryY=0.037;entryDx=0;entryDy=0;entryPerimeter=0;fontSize=12;" edge="1" parent="1" source="yTwSWckdho64-H-ZR-6q-3" target="EF0tD5zJlTwU-LwpF9rW-140">
          <mxGeometry relative="1" as="geometry" />
        </mxCell>
        <mxCell id="yTwSWckdho64-H-ZR-6q-3" value="&lt;b style=&quot;font-weight: normal&quot; id=&quot;docs-internal-guid-f2561a2b-7fff-a4c8-612b-1b55c9be48c0&quot;&gt;&lt;img width=&quot;739px;&quot; height=&quot;394px;&quot; src=&quot;https://lh4.googleusercontent.com/wFAqgc8D1eaaZGcQrifp6DJHsy9T1Ti726P0X9mBlxXEQ-ctquvlDVXmNpSiJj8xEXrWyHeOD39G0o4RSF60e71PyhMQh9p0p_ry0ykWQPcsgfFq7CBjoncafjLORI8NP1FDBi3NWfs&quot; style=&quot;border: 1px solid #000000 ; border-radius: 0.5px&quot;&gt;&lt;/b&gt;" style="text;whiteSpace=wrap;html=1;fontSize=12;" vertex="1" parent="1">
          <mxGeometry x="330" y="200" width="740" height="400" as="geometry" />
        </mxCell>
        <mxCell id="yTwSWckdho64-H-ZR-6q-7" style="edgeStyle=orthogonalEdgeStyle;curved=1;rounded=0;orthogonalLoop=1;jettySize=auto;html=1;exitX=1;exitY=0.5;exitDx=0;exitDy=0;entryX=0;entryY=0.75;entryDx=0;entryDy=0;fontSize=12;" edge="1" parent="1" source="EF0tD5zJlTwU-LwpF9rW-8" target="yTwSWckdho64-H-ZR-6q-3">
          <mxGeometry relative="1" as="geometry" />
        </mxCell>
      </root>
    </mxGraphModel>
  </diagram>
  <diagram id="4pPyv9dGTl9IdYqMEyI-" name="Page-2">
    <mxGraphModel dx="2076" dy="1094" grid="1" gridSize="10" guides="1" tooltips="1" connect="1" arrows="1" fold="1" page="1" pageScale="1" pageWidth="1654" pageHeight="2336" math="0" shadow="0">
      <root>
        <mxCell id="XLMxTIMccTdK4T84Lakk-0" />
        <mxCell id="XLMxTIMccTdK4T84Lakk-1" parent="XLMxTIMccTdK4T84Lakk-0" />
        <mxCell id="XLMxTIMccTdK4T84Lakk-6" style="edgeStyle=orthogonalEdgeStyle;curved=1;rounded=0;orthogonalLoop=1;jettySize=auto;html=1;exitX=1;exitY=0.5;exitDx=0;exitDy=0;entryX=0;entryY=0.5;entryDx=0;entryDy=0;fontSize=12;shadow=1;" edge="1" parent="XLMxTIMccTdK4T84Lakk-1" source="XLMxTIMccTdK4T84Lakk-2" target="XLMxTIMccTdK4T84Lakk-3">
          <mxGeometry relative="1" as="geometry" />
        </mxCell>
        <mxCell id="XLMxTIMccTdK4T84Lakk-2" value="LANDING" style="rounded=1;whiteSpace=wrap;html=1;labelBackgroundColor=none;fontSize=12;fillColor=#FFFFFF;" vertex="1" parent="XLMxTIMccTdK4T84Lakk-1">
          <mxGeometry x="290" y="490" width="120" height="60" as="geometry" />
        </mxCell>
        <mxCell id="XLMxTIMccTdK4T84Lakk-7" style="edgeStyle=orthogonalEdgeStyle;curved=1;rounded=0;orthogonalLoop=1;jettySize=auto;html=1;exitX=1;exitY=0.5;exitDx=0;exitDy=0;entryX=0;entryY=0.5;entryDx=0;entryDy=0;fontSize=12;shadow=1;" edge="1" parent="XLMxTIMccTdK4T84Lakk-1" source="XLMxTIMccTdK4T84Lakk-3" target="XLMxTIMccTdK4T84Lakk-4">
          <mxGeometry relative="1" as="geometry" />
        </mxCell>
        <mxCell id="XLMxTIMccTdK4T84Lakk-3" value="LOGIN" style="rounded=1;whiteSpace=wrap;html=1;labelBackgroundColor=none;fontSize=12;fillColor=#FFFFFF;shadow=1;" vertex="1" parent="XLMxTIMccTdK4T84Lakk-1">
          <mxGeometry x="460" y="490" width="120" height="60" as="geometry" />
        </mxCell>
        <mxCell id="XLMxTIMccTdK4T84Lakk-8" style="edgeStyle=orthogonalEdgeStyle;curved=1;rounded=0;orthogonalLoop=1;jettySize=auto;html=1;exitX=1;exitY=0.5;exitDx=0;exitDy=0;entryX=0;entryY=0.5;entryDx=0;entryDy=0;fontSize=12;shadow=1;" edge="1" parent="XLMxTIMccTdK4T84Lakk-1" source="XLMxTIMccTdK4T84Lakk-4" target="XLMxTIMccTdK4T84Lakk-5">
          <mxGeometry relative="1" as="geometry" />
        </mxCell>
        <mxCell id="XLMxTIMccTdK4T84Lakk-13" style="edgeStyle=orthogonalEdgeStyle;curved=1;rounded=0;orthogonalLoop=1;jettySize=auto;html=1;exitX=1;exitY=0.5;exitDx=0;exitDy=0;entryX=0;entryY=0.5;entryDx=0;entryDy=0;fontSize=12;shadow=1;" edge="1" parent="XLMxTIMccTdK4T84Lakk-1" source="XLMxTIMccTdK4T84Lakk-4" target="XLMxTIMccTdK4T84Lakk-10">
          <mxGeometry relative="1" as="geometry" />
        </mxCell>
        <mxCell id="XLMxTIMccTdK4T84Lakk-14" style="edgeStyle=orthogonalEdgeStyle;curved=1;rounded=0;orthogonalLoop=1;jettySize=auto;html=1;exitX=1;exitY=0.5;exitDx=0;exitDy=0;entryX=0;entryY=0.5;entryDx=0;entryDy=0;fontSize=12;shadow=1;" edge="1" parent="XLMxTIMccTdK4T84Lakk-1" source="XLMxTIMccTdK4T84Lakk-4" target="XLMxTIMccTdK4T84Lakk-11">
          <mxGeometry relative="1" as="geometry" />
        </mxCell>
        <mxCell id="XLMxTIMccTdK4T84Lakk-15" style="edgeStyle=orthogonalEdgeStyle;curved=1;rounded=0;orthogonalLoop=1;jettySize=auto;html=1;exitX=1;exitY=0.5;exitDx=0;exitDy=0;entryX=0;entryY=0.5;entryDx=0;entryDy=0;fontSize=12;shadow=1;" edge="1" parent="XLMxTIMccTdK4T84Lakk-1" source="XLMxTIMccTdK4T84Lakk-4" target="XLMxTIMccTdK4T84Lakk-12">
          <mxGeometry relative="1" as="geometry" />
        </mxCell>
        <mxCell id="XLMxTIMccTdK4T84Lakk-17" style="edgeStyle=orthogonalEdgeStyle;curved=1;rounded=0;orthogonalLoop=1;jettySize=auto;html=1;exitX=1;exitY=0.5;exitDx=0;exitDy=0;entryX=0;entryY=0.5;entryDx=0;entryDy=0;fontSize=12;shadow=1;" edge="1" parent="XLMxTIMccTdK4T84Lakk-1" source="XLMxTIMccTdK4T84Lakk-4" target="XLMxTIMccTdK4T84Lakk-16">
          <mxGeometry relative="1" as="geometry" />
        </mxCell>
        <mxCell id="sovtPcVj0V5ybvaZtze1-1" style="edgeStyle=orthogonalEdgeStyle;curved=1;rounded=0;orthogonalLoop=1;jettySize=auto;html=1;exitX=1;exitY=0.5;exitDx=0;exitDy=0;entryX=0;entryY=0.5;entryDx=0;entryDy=0;fontSize=12;shadow=1;" edge="1" parent="XLMxTIMccTdK4T84Lakk-1" source="XLMxTIMccTdK4T84Lakk-4" target="sovtPcVj0V5ybvaZtze1-0">
          <mxGeometry relative="1" as="geometry">
            <Array as="points">
              <mxPoint x="780" y="520" />
              <mxPoint x="780" y="810" />
            </Array>
          </mxGeometry>
        </mxCell>
        <mxCell id="sovtPcVj0V5ybvaZtze1-11" style="edgeStyle=orthogonalEdgeStyle;curved=1;rounded=0;orthogonalLoop=1;jettySize=auto;html=1;exitX=1;exitY=0.5;exitDx=0;exitDy=0;fontSize=12;entryX=0;entryY=0.5;entryDx=0;entryDy=0;shadow=1;" edge="1" parent="XLMxTIMccTdK4T84Lakk-1" source="XLMxTIMccTdK4T84Lakk-4" target="sovtPcVj0V5ybvaZtze1-12">
          <mxGeometry relative="1" as="geometry">
            <mxPoint x="760" y="280" as="targetPoint" />
          </mxGeometry>
        </mxCell>
        <mxCell id="XLMxTIMccTdK4T84Lakk-4" value="APPLICATION&lt;br&gt;PORTAL" style="rounded=1;whiteSpace=wrap;html=1;labelBackgroundColor=none;fontSize=12;fillColor=#FFFFFF;shadow=1;" vertex="1" parent="XLMxTIMccTdK4T84Lakk-1">
          <mxGeometry x="620" y="490" width="120" height="60" as="geometry" />
        </mxCell>
        <mxCell id="XLMxTIMccTdK4T84Lakk-5" value="DASHBOARD" style="rounded=1;whiteSpace=wrap;html=1;labelBackgroundColor=none;fontSize=12;fillColor=#FFFFFF;shadow=1;" vertex="1" parent="XLMxTIMccTdK4T84Lakk-1">
          <mxGeometry x="850" y="360" width="120" height="60" as="geometry" />
        </mxCell>
        <mxCell id="sovtPcVj0V5ybvaZtze1-2" style="edgeStyle=orthogonalEdgeStyle;curved=1;rounded=0;orthogonalLoop=1;jettySize=auto;html=1;exitX=1;exitY=0.5;exitDx=0;exitDy=0;fontSize=12;entryX=0;entryY=0.5;entryDx=0;entryDy=0;shadow=1;" edge="1" parent="XLMxTIMccTdK4T84Lakk-1" source="XLMxTIMccTdK4T84Lakk-10" target="sovtPcVj0V5ybvaZtze1-4">
          <mxGeometry relative="1" as="geometry">
            <mxPoint x="1060" y="450" as="targetPoint" />
          </mxGeometry>
        </mxCell>
        <mxCell id="sovtPcVj0V5ybvaZtze1-3" style="edgeStyle=orthogonalEdgeStyle;curved=1;rounded=0;orthogonalLoop=1;jettySize=auto;html=1;exitX=1;exitY=0.5;exitDx=0;exitDy=0;fontSize=12;entryX=0;entryY=0.5;entryDx=0;entryDy=0;shadow=1;" edge="1" parent="XLMxTIMccTdK4T84Lakk-1" source="XLMxTIMccTdK4T84Lakk-10" target="sovtPcVj0V5ybvaZtze1-5">
          <mxGeometry relative="1" as="geometry">
            <mxPoint x="1060" y="510" as="targetPoint" />
          </mxGeometry>
        </mxCell>
        <mxCell id="XLMxTIMccTdK4T84Lakk-10" value="APPLICATIONS" style="rounded=1;whiteSpace=wrap;html=1;labelBackgroundColor=none;fontSize=12;fillColor=#FFFFFF;shadow=1;" vertex="1" parent="XLMxTIMccTdK4T84Lakk-1">
          <mxGeometry x="860" y="450" width="120" height="60" as="geometry" />
        </mxCell>
        <mxCell id="XLMxTIMccTdK4T84Lakk-11" value="PROFILE" style="rounded=1;whiteSpace=wrap;html=1;labelBackgroundColor=none;fontSize=12;fillColor=#FFFFFF;shadow=1;" vertex="1" parent="XLMxTIMccTdK4T84Lakk-1">
          <mxGeometry x="850" y="540" width="120" height="60" as="geometry" />
        </mxCell>
        <mxCell id="sovtPcVj0V5ybvaZtze1-30" value="" style="edgeStyle=orthogonalEdgeStyle;curved=1;rounded=0;orthogonalLoop=1;jettySize=auto;html=1;fontSize=6;shadow=1;" edge="1" parent="XLMxTIMccTdK4T84Lakk-1" source="XLMxTIMccTdK4T84Lakk-12" target="sovtPcVj0V5ybvaZtze1-29">
          <mxGeometry relative="1" as="geometry" />
        </mxCell>
        <mxCell id="sovtPcVj0V5ybvaZtze1-31" style="edgeStyle=orthogonalEdgeStyle;curved=1;rounded=0;orthogonalLoop=1;jettySize=auto;html=1;exitX=1;exitY=0.5;exitDx=0;exitDy=0;fontSize=6;shadow=1;" edge="1" parent="XLMxTIMccTdK4T84Lakk-1" source="XLMxTIMccTdK4T84Lakk-12">
          <mxGeometry relative="1" as="geometry">
            <mxPoint x="1110" y="650" as="targetPoint" />
          </mxGeometry>
        </mxCell>
        <mxCell id="XLMxTIMccTdK4T84Lakk-12" value="NOTICES" style="rounded=1;whiteSpace=wrap;html=1;labelBackgroundColor=none;fontSize=12;fillColor=#FFFFFF;shadow=1;" vertex="1" parent="XLMxTIMccTdK4T84Lakk-1">
          <mxGeometry x="840" y="620" width="130" height="60" as="geometry" />
        </mxCell>
        <mxCell id="sovtPcVj0V5ybvaZtze1-14" style="edgeStyle=orthogonalEdgeStyle;curved=1;rounded=0;orthogonalLoop=1;jettySize=auto;html=1;exitX=1;exitY=0.5;exitDx=0;exitDy=0;fontSize=12;shadow=1;" edge="1" parent="XLMxTIMccTdK4T84Lakk-1" source="XLMxTIMccTdK4T84Lakk-16">
          <mxGeometry relative="1" as="geometry">
            <mxPoint x="1010" y="730" as="targetPoint" />
          </mxGeometry>
        </mxCell>
        <mxCell id="XLMxTIMccTdK4T84Lakk-16" value="QUERIES" style="rounded=1;whiteSpace=wrap;html=1;labelBackgroundColor=none;fontSize=12;fillColor=#FFFFFF;shadow=1;" vertex="1" parent="XLMxTIMccTdK4T84Lakk-1">
          <mxGeometry x="820" y="700" width="120" height="60" as="geometry" />
        </mxCell>
        <mxCell id="sovtPcVj0V5ybvaZtze1-0" value="NOTIFICATIONS" style="rounded=1;whiteSpace=wrap;html=1;labelBackgroundColor=none;fontSize=12;fillColor=#FFFFFF;shadow=1;" vertex="1" parent="XLMxTIMccTdK4T84Lakk-1">
          <mxGeometry x="820" y="780" width="120" height="60" as="geometry" />
        </mxCell>
        <mxCell id="sovtPcVj0V5ybvaZtze1-7" style="edgeStyle=orthogonalEdgeStyle;curved=1;rounded=0;orthogonalLoop=1;jettySize=auto;html=1;exitX=1;exitY=0.5;exitDx=0;exitDy=0;fontSize=12;entryX=0;entryY=0.5;entryDx=0;entryDy=0;shadow=1;" edge="1" parent="XLMxTIMccTdK4T84Lakk-1" source="sovtPcVj0V5ybvaZtze1-4" target="sovtPcVj0V5ybvaZtze1-8">
          <mxGeometry relative="1" as="geometry">
            <mxPoint x="1260" y="420" as="targetPoint" />
          </mxGeometry>
        </mxCell>
        <mxCell id="sovtPcVj0V5ybvaZtze1-10" style="edgeStyle=orthogonalEdgeStyle;curved=1;rounded=0;orthogonalLoop=1;jettySize=auto;html=1;exitX=1;exitY=0.5;exitDx=0;exitDy=0;entryX=0;entryY=0.5;entryDx=0;entryDy=0;fontSize=12;shadow=1;" edge="1" parent="XLMxTIMccTdK4T84Lakk-1" source="sovtPcVj0V5ybvaZtze1-4" target="sovtPcVj0V5ybvaZtze1-9">
          <mxGeometry relative="1" as="geometry">
            <Array as="points">
              <mxPoint x="1245" y="420" />
              <mxPoint x="1245" y="490" />
            </Array>
          </mxGeometry>
        </mxCell>
        <mxCell id="sovtPcVj0V5ybvaZtze1-4" value="VIEW APPLICATIONS" style="rounded=1;whiteSpace=wrap;html=1;labelBackgroundColor=none;fontSize=12;fillColor=#FFFFFF;shadow=1;" vertex="1" parent="XLMxTIMccTdK4T84Lakk-1">
          <mxGeometry x="1060" y="390" width="120" height="60" as="geometry" />
        </mxCell>
        <mxCell id="sovtPcVj0V5ybvaZtze1-6" style="edgeStyle=orthogonalEdgeStyle;curved=1;rounded=0;orthogonalLoop=1;jettySize=auto;html=1;exitX=0.5;exitY=0;exitDx=0;exitDy=0;entryX=0.5;entryY=1;entryDx=0;entryDy=0;fontSize=12;shadow=1;" edge="1" parent="XLMxTIMccTdK4T84Lakk-1" source="sovtPcVj0V5ybvaZtze1-5" target="sovtPcVj0V5ybvaZtze1-4">
          <mxGeometry relative="1" as="geometry" />
        </mxCell>
        <mxCell id="sovtPcVj0V5ybvaZtze1-5" value="GENERATE APPLICATIONS" style="rounded=1;whiteSpace=wrap;html=1;labelBackgroundColor=none;fontSize=12;fillColor=#FFFFFF;shadow=1;" vertex="1" parent="XLMxTIMccTdK4T84Lakk-1">
          <mxGeometry x="1060" y="490" width="120" height="60" as="geometry" />
        </mxCell>
        <mxCell id="sovtPcVj0V5ybvaZtze1-8" value="DETAILS" style="rounded=1;whiteSpace=wrap;html=1;labelBackgroundColor=none;fontSize=12;fillColor=#FFFFFF;shadow=1;" vertex="1" parent="XLMxTIMccTdK4T84Lakk-1">
          <mxGeometry x="1310" y="330" width="120" height="60" as="geometry" />
        </mxCell>
        <mxCell id="sovtPcVj0V5ybvaZtze1-9" value="SUBMITTED APPLICAITONS" style="rounded=1;whiteSpace=wrap;html=1;labelBackgroundColor=none;fontSize=12;fillColor=#FFFFFF;shadow=1;" vertex="1" parent="XLMxTIMccTdK4T84Lakk-1">
          <mxGeometry x="1310" y="460" width="120" height="60" as="geometry" />
        </mxCell>
        <mxCell id="sovtPcVj0V5ybvaZtze1-12" value="CALENDER" style="rounded=1;whiteSpace=wrap;html=1;labelBackgroundColor=none;fontSize=12;fillColor=#FFFFFF;" vertex="1" parent="XLMxTIMccTdK4T84Lakk-1">
          <mxGeometry x="830" y="270" width="120" height="60" as="geometry" />
        </mxCell>
        <mxCell id="sovtPcVj0V5ybvaZtze1-16" value="TABS" style="swimlane;fontStyle=0;childLayout=stackLayout;horizontal=1;startSize=30;horizontalStack=0;resizeParent=1;resizeParentMax=0;resizeLast=0;collapsible=1;marginBottom=0;labelBackgroundColor=none;fontSize=12;fillColor=#FFFFFF;shadow=1;" vertex="1" parent="XLMxTIMccTdK4T84Lakk-1">
          <mxGeometry x="1010" y="700" width="140" height="120" as="geometry" />
        </mxCell>
        <mxCell id="sovtPcVj0V5ybvaZtze1-17" value="ALL QUERIES" style="text;strokeColor=none;fillColor=none;align=left;verticalAlign=middle;spacingLeft=4;spacingRight=4;overflow=hidden;points=[[0,0.5],[1,0.5]];portConstraint=eastwest;rotatable=0;labelBackgroundColor=none;fontSize=12;shadow=1;" vertex="1" parent="sovtPcVj0V5ybvaZtze1-16">
          <mxGeometry y="30" width="140" height="30" as="geometry" />
        </mxCell>
        <mxCell id="sovtPcVj0V5ybvaZtze1-18" value="PENDING" style="text;strokeColor=none;fillColor=none;align=left;verticalAlign=middle;spacingLeft=4;spacingRight=4;overflow=hidden;points=[[0,0.5],[1,0.5]];portConstraint=eastwest;rotatable=0;labelBackgroundColor=none;fontSize=12;shadow=1;" vertex="1" parent="sovtPcVj0V5ybvaZtze1-16">
          <mxGeometry y="60" width="140" height="30" as="geometry" />
        </mxCell>
        <mxCell id="sovtPcVj0V5ybvaZtze1-19" value="SOLVED" style="text;strokeColor=none;fillColor=none;align=left;verticalAlign=middle;spacingLeft=4;spacingRight=4;overflow=hidden;points=[[0,0.5],[1,0.5]];portConstraint=eastwest;rotatable=0;labelBackgroundColor=none;fontSize=12;shadow=1;" vertex="1" parent="sovtPcVj0V5ybvaZtze1-16">
          <mxGeometry y="90" width="140" height="30" as="geometry" />
        </mxCell>
        <mxCell id="sovtPcVj0V5ybvaZtze1-20" style="edgeStyle=orthogonalEdgeStyle;curved=1;rounded=0;orthogonalLoop=1;jettySize=auto;html=1;exitX=1;exitY=0.5;exitDx=0;exitDy=0;fontSize=12;startArrow=none;entryX=0;entryY=0.5;entryDx=0;entryDy=0;shadow=1;" edge="1" parent="XLMxTIMccTdK4T84Lakk-1" source="sovtPcVj0V5ybvaZtze1-24" target="sovtPcVj0V5ybvaZtze1-22">
          <mxGeometry relative="1" as="geometry">
            <mxPoint x="1233" y="730" as="targetPoint" />
            <Array as="points">
              <mxPoint x="1243" y="725" />
            </Array>
          </mxGeometry>
        </mxCell>
        <mxCell id="sovtPcVj0V5ybvaZtze1-21" style="edgeStyle=orthogonalEdgeStyle;curved=1;rounded=0;orthogonalLoop=1;jettySize=auto;html=1;exitX=1;exitY=0.5;exitDx=0;exitDy=0;fontSize=12;startArrow=none;entryX=0;entryY=0.25;entryDx=0;entryDy=0;shadow=1;" edge="1" parent="XLMxTIMccTdK4T84Lakk-1" source="sovtPcVj0V5ybvaZtze1-26" target="sovtPcVj0V5ybvaZtze1-23">
          <mxGeometry relative="1" as="geometry">
            <mxPoint x="1243" y="760" as="targetPoint" />
            <Array as="points" />
          </mxGeometry>
        </mxCell>
        <mxCell id="sovtPcVj0V5ybvaZtze1-22" value="REPLY" style="rounded=0;whiteSpace=wrap;html=1;labelBackgroundColor=none;fontSize=12;fillColor=#FFFFFF;shadow=1;" vertex="1" parent="XLMxTIMccTdK4T84Lakk-1">
          <mxGeometry x="1243" y="710" width="120" height="30" as="geometry" />
        </mxCell>
        <mxCell id="sovtPcVj0V5ybvaZtze1-23" value="DELETE" style="rounded=0;whiteSpace=wrap;html=1;labelBackgroundColor=none;fontSize=12;fillColor=#FFFFFF;shadow=1;" vertex="1" parent="XLMxTIMccTdK4T84Lakk-1">
          <mxGeometry x="1248" y="745" width="110" height="20" as="geometry" />
        </mxCell>
        <mxCell id="sovtPcVj0V5ybvaZtze1-24" value="OPERATIONS" style="text;html=1;resizable=0;autosize=1;align=center;verticalAlign=middle;points=[];fillColor=none;strokeColor=none;rounded=0;labelBackgroundColor=none;fontSize=6;shadow=1;" vertex="1" parent="XLMxTIMccTdK4T84Lakk-1">
          <mxGeometry x="1173" y="720" width="50" height="10" as="geometry" />
        </mxCell>
        <mxCell id="sovtPcVj0V5ybvaZtze1-25" value="" style="edgeStyle=orthogonalEdgeStyle;curved=1;rounded=0;orthogonalLoop=1;jettySize=auto;html=1;exitX=1;exitY=0.5;exitDx=0;exitDy=0;fontSize=12;endArrow=none;shadow=1;" edge="1" parent="XLMxTIMccTdK4T84Lakk-1" source="sovtPcVj0V5ybvaZtze1-17" target="sovtPcVj0V5ybvaZtze1-24">
          <mxGeometry relative="1" as="geometry">
            <mxPoint x="1233" y="730" as="targetPoint" />
            <mxPoint x="1150" y="745" as="sourcePoint" />
          </mxGeometry>
        </mxCell>
        <mxCell id="sovtPcVj0V5ybvaZtze1-26" value="OPERATIONS" style="text;html=1;resizable=0;autosize=1;align=center;verticalAlign=middle;points=[];fillColor=none;strokeColor=none;rounded=0;labelBackgroundColor=none;fontSize=6;shadow=1;" vertex="1" parent="XLMxTIMccTdK4T84Lakk-1">
          <mxGeometry x="1173" y="745" width="50" height="10" as="geometry" />
        </mxCell>
        <mxCell id="sovtPcVj0V5ybvaZtze1-27" value="" style="edgeStyle=orthogonalEdgeStyle;curved=1;rounded=0;orthogonalLoop=1;jettySize=auto;html=1;exitX=1;exitY=0.5;exitDx=0;exitDy=0;fontSize=12;endArrow=none;shadow=1;" edge="1" parent="XLMxTIMccTdK4T84Lakk-1" source="sovtPcVj0V5ybvaZtze1-17" target="sovtPcVj0V5ybvaZtze1-26">
          <mxGeometry relative="1" as="geometry">
            <mxPoint x="1233" y="760" as="targetPoint" />
            <mxPoint x="1150" y="745" as="sourcePoint" />
          </mxGeometry>
        </mxCell>
        <mxCell id="sovtPcVj0V5ybvaZtze1-29" value="VIEW NOTICES" style="rounded=1;whiteSpace=wrap;html=1;labelBackgroundColor=none;fontSize=12;fillColor=#FFFFFF;shadow=1;" vertex="1" parent="XLMxTIMccTdK4T84Lakk-1">
          <mxGeometry x="1037" y="570" width="120" height="40" as="geometry" />
        </mxCell>
        <mxCell id="sovtPcVj0V5ybvaZtze1-33" value="&lt;font size=&quot;1&quot;&gt;GENERATE NOTICES&lt;/font&gt;" style="rounded=1;whiteSpace=wrap;html=1;labelBackgroundColor=none;fontSize=7;fillColor=#FFFFFF;shadow=1;" vertex="1" parent="XLMxTIMccTdK4T84Lakk-1">
          <mxGeometry x="1110" y="630" width="120" height="40" as="geometry" />
        </mxCell>
        <mxCell id="wlMHu-EROADRUw3iGIoT-0" value="CLIENT APPLICATION" style="text;html=1;resizable=0;autosize=1;align=center;verticalAlign=middle;points=[];fillColor=none;strokeColor=none;rounded=0;labelBackgroundColor=none;fontSize=35;" vertex="1" parent="XLMxTIMccTdK4T84Lakk-1">
          <mxGeometry x="110" y="180" width="380" height="50" as="geometry" />
        </mxCell>
      </root>
    </mxGraphModel>
  </diagram>
</mxfile>
